<?xml version="1.0" encoding="UTF-8"?>
<svg xmlns="http://www.w3.org/2000/svg" viewBox="0 0 600 400" width="600" height="400">
  <defs>
    <linearGradient id="bg3da" x1="0%" y1="0%" x2="100%" y2="100%">
      <stop offset="0%" style="stop-color:#0b0f14"/>
      <stop offset="100%" style="stop-color:#16213e"/>
    </linearGradient>
    <radialGradient id="glowa" cx="50%" cy="50%" r="50%">
      <stop offset="0%" style="stop-color:#e94560;stop-opacity:0.3"/>
      <stop offset="100%" style="stop-color:#0b0f14;stop-opacity:0"/>
    </radialGradient>
  </defs>
  <rect width="600" height="400" fill="url(#bg3da)"/>
  <ellipse cx="300.0" cy="200.0" rx="180" ry="120" fill="url(#glowa)"/>
  <g transform="translate(300.0, 200.0)">
    <animateTransform attributeName="transform" type="rotate" from="0 0 0" to="360 0 0" dur="30s" repeatCount="indefinite" additive="sum"/>
    <g transform="translate(-300.0, -200.0)">
      <g class="edges" stroke="#cfd8dc" stroke-opacity="0.35" stroke-width="0.5">
        <line x1="153.5" y1="331.4" x2="152.6" y2="333.0"/>
        <line x1="35.5" y1="261.3" x2="39.8" y2="261.5"/>
        <line x1="39.3" y1="261.9" x2="38.3" y2="262.5"/>
        <line x1="257.1" y1="148.1" x2="255.0" y2="147.4"/>
        <line x1="24.0" y1="195.8" x2="21.2" y2="194.6"/>
        <line x1="39.7" y1="262.5" x2="36.9" y2="262.6"/>
        <line x1="-85.8" y1="250.3" x2="-84.4" y2="250.3"/>
        <line x1="232.9" y1="206.3" x2="232.0" y2="205.5"/>
        <line x1="222.2" y1="211.8" x2="221.3" y2="212.0"/>
        <line x1="233.4" y1="191.1" x2="233.0" y2="190.8"/>
        <line x1="423.5" y1="218.6" x2="425.2" y2="218.6"/>
        <line x1="232.9" y1="187.5" x2="231.7" y2="188.9"/>
        <line x1="422.7" y1="218.3" x2="422.6" y2="219.2"/>
        <line x1="233.4" y1="205.8" x2="233.2" y2="206.1"/>
        <line x1="77.5" y1="125.9" x2="76.5" y2="124.5"/>
        <line x1="79.2" y1="124.8" x2="75.9" y2="126.1"/>
        <line x1="221.3" y1="211.3" x2="223.3" y2="212.6"/>
        <line x1="233.6" y1="194.2" x2="234.1" y2="196.0"/>
        <line x1="255.7" y1="148.3" x2="256.5" y2="148.6"/>
        <line x1="222.4" y1="211.5" x2="221.3" y2="211.3"/>
        <line x1="221.7" y1="211.2" x2="222.6" y2="212.1"/>
        <line x1="232.9" y1="187.5" x2="232.5" y2="187.3"/>
        <line x1="423.0" y1="217.6" x2="424.2" y2="217.6"/>
        <line x1="253.7" y1="148.4" x2="257.1" y2="148.1"/>
        <line x1="-89.1" y1="251.3" x2="-87.8" y2="251.5"/>
        <line x1="-84.5" y1="248.9" x2="-87.0" y2="249.2"/>
        <line x1="-87.8" y1="251.2" x2="-89.4" y2="250.8"/>
        <line x1="153.5" y1="331.4" x2="152.6" y2="333.1"/>
        <line x1="148.6" y1="332.0" x2="152.2" y2="332.3"/>
        <line x1="40.7" y1="262.8" x2="41.7" y2="262.8"/>
        <line x1="77.5" y1="125.1" x2="78.1" y2="123.8"/>
        <line x1="231.5" y1="188.9" x2="234.1" y2="189.1"/>
        <line x1="151.6" y1="331.8" x2="152.7" y2="335.2"/>
        <line x1="41.7" y1="262.8" x2="40.8" y2="264.3"/>
        <line x1="255.6" y1="148.7" x2="255.7" y2="148.3"/>
        <line x1="423.5" y1="218.6" x2="422.7" y2="218.3"/>
        <line x1="425.4" y1="217.9" x2="423.0" y2="219.0"/>
        <line x1="257.5" y1="147.6" x2="252.4" y2="149.6"/>
        <line x1="233.5" y1="206.7" x2="233.0" y2="206.1"/>
        <line x1="422.7" y1="218.3" x2="425.2" y2="218.6"/>
        <line x1="425.4" y1="217.9" x2="425.2" y2="218.6"/>
        <line x1="254.8" y1="147.5" x2="258.1" y2="148.6"/>
        <line x1="150.4" y1="333.7" x2="153.6" y2="330.9"/>
        <line x1="255.7" y1="148.3" x2="255.5" y2="148.8"/>
        <line x1="37.0" y1="260.6" x2="38.2" y2="262.5"/>
        <line x1="233.9" y1="195.7" x2="234.2" y2="196.1"/>
        <line x1="-86.4" y1="249.8" x2="-84.5" y2="248.9"/>
        <line x1="222.4" y1="211.5" x2="221.3" y2="211.0"/>
        <line x1="-87.1" y1="251.9" x2="-86.3" y2="250.6"/>
        <line x1="151.7" y1="334.0" x2="151.0" y2="331.9"/>
        <line x1="252.7" y1="147.9" x2="254.4" y2="150.2"/>
        <line x1="232.9" y1="187.5" x2="232.2" y2="187.2"/>
        <line x1="35.1" y1="263.9" x2="35.3" y2="262.7"/>
        <line x1="76.7" y1="124.6" x2="77.6" y2="125.4"/>
        <line x1="234.2" y1="196.1" x2="234.5" y2="195.9"/>
        <line x1="-87.8" y1="251.2" x2="-87.8" y2="251.5"/>
        <line x1="40.7" y1="262.8" x2="40.1" y2="263.7"/>
        <line x1="35.5" y1="261.3" x2="38.2" y2="262.5"/>
        <line x1="256.5" y1="148.6" x2="252.8" y2="147.9"/>
        <line x1="257.1" y1="148.1" x2="256.8" y2="147.3"/>
        <line x1="24.0" y1="195.8" x2="23.6" y2="195.5"/>
        <line x1="232.9" y1="206.3" x2="233.1" y2="205.8"/>
        <line x1="233.4" y1="191.1" x2="232.5" y2="191.4"/>
        <line x1="425.4" y1="217.9" x2="425.2" y2="217.8"/>
        <line x1="255.6" y1="148.7" x2="252.8" y2="147.9"/>
        <line x1="-84.0" y1="249.6" x2="-84.8" y2="249.2"/>
        <line x1="233.4" y1="205.8" x2="232.0" y2="205.5"/>
        <line x1="79.2" y1="124.8" x2="77.5" y2="125.1"/>
        <line x1="254.4" y1="150.2" x2="251.7" y2="147.6"/>
        <line x1="79.2" y1="124.8" x2="79.4" y2="123.4"/>
        <line x1="233.6" y1="194.2" x2="234.5" y2="196.6"/>
        <line x1="221.7" y1="211.2" x2="221.3" y2="212.0"/>
        <line x1="233.0" y1="187.8" x2="231.7" y2="188.9"/>
        <line x1="152.5" y1="331.3" x2="151.0" y2="331.9"/>
        <line x1="23.1" y1="196.0" x2="22.6" y2="196.7"/>
        <line x1="149.3" y1="331.9" x2="149.0" y2="332.8"/>
        <line x1="423.0" y1="219.0" x2="425.0" y2="218.2"/>
        <line x1="422.6" y1="218.8" x2="423.2" y2="219.6"/>
        <line x1="36.8" y1="260.8" x2="36.2" y2="261.1"/>
        <line x1="-84.4" y1="250.3" x2="-87.0" y2="249.2"/>
        <line x1="78.1" y1="123.8" x2="76.7" y2="126.2"/>
        <line x1="153.2" y1="331.5" x2="153.8" y2="333.1"/>
        <line x1="255.6" y1="148.7" x2="254.4" y2="149.9"/>
        <line x1="-85.4" y1="251.1" x2="-84.0" y2="249.6"/>
        <line x1="234.1" y1="196.0" x2="234.2" y2="196.1"/>
        <line x1="37.0" y1="260.6" x2="35.5" y2="261.3"/>
        <line x1="254.4" y1="150.2" x2="253.1" y2="146.7"/>
        <line x1="254.5" y1="147.8" x2="255.0" y2="147.4"/>
        <line x1="22.6" y1="196.7" x2="24.0" y2="195.8"/>
        <line x1="-87.1" y1="251.9" x2="-86.8" y2="250.6"/>
        <line x1="24.4" y1="197.6" x2="26.0" y2="198.4"/>
        <line x1="424.1" y1="219.9" x2="422.6" y2="219.2"/>
        <line x1="253.7" y1="148.4" x2="258.1" y2="148.6"/>
        <line x1="232.8" y1="186.9" x2="234.2" y2="187.9"/>
        <line x1="233.1" y1="189.5" x2="233.1" y2="189.2"/>
        <line x1="40.7" y1="262.8" x2="41.9" y2="263.1"/>
        <line x1="26.0" y1="198.4" x2="25.6" y2="198.4"/>
        <line x1="425.9" y1="218.5" x2="424.9" y2="217.2"/>
        <line x1="221.3" y1="212.0" x2="221.3" y2="211.0"/>
        <line x1="-87.2" y1="250.5" x2="-86.3" y2="250.6"/>
        <line x1="-87.2" y1="250.5" x2="-87.3" y2="249.6"/>
        <line x1="-87.0" y1="249.2" x2="-86.2" y2="251.0"/>
        <line x1="232.9" y1="206.3" x2="232.9" y2="206.0"/>
        <line x1="233.0" y1="187.8" x2="232.2" y2="187.2"/>
        <line x1="253.7" y1="148.0" x2="257.1" y2="148.1"/>
        <line x1="256.9" y1="148.8" x2="257.1" y2="148.1"/>
        <line x1="255.6" y1="148.7" x2="254.8" y2="148.7"/>
        <line x1="425.4" y1="217.9" x2="423.0" y2="217.6"/>
        <line x1="148.0" y1="334.0" x2="155.1" y2="333.7"/>
        <line x1="-84.0" y1="249.6" x2="-84.4" y2="248.8"/>
        <line x1="232.5" y1="191.4" x2="233.0" y2="190.8"/>
        <line x1="254.5" y1="147.8" x2="255.0" y2="147.5"/>
        <line x1="424.9" y1="219.4" x2="421.0" y2="218.4"/>
        <line x1="232.0" y1="205.5" x2="233.2" y2="206.1"/>
        <line x1="153.7" y1="334.1" x2="150.9" y2="331.8"/>
        <line x1="150.1" y1="332.3" x2="152.7" y2="335.2"/>
        <line x1="233.8" y1="192.7" x2="233.0" y2="190.6"/>
        <line x1="254.8" y1="148.7" x2="256.5" y2="148.6"/>
        <line x1="23.1" y1="196.0" x2="23.0" y2="196.2"/>
        <line x1="254.8" y1="148.7" x2="252.4" y2="149.6"/>
        <line x1="252.7" y1="147.9" x2="252.4" y2="149.6"/>
        <line x1="38.2" y1="260.2" x2="37.7" y2="259.2"/>
        <line x1="152.5" y1="332.4" x2="148.0" y2="334.0"/>
        <line x1="38.3" y1="262.5" x2="38.9" y2="263.4"/>
        <line x1="39.1" y1="263.5" x2="38.9" y2="263.4"/>
        <line x1="423.0" y1="219.0" x2="423.5" y2="218.6"/>
        <line x1="-88.3" y1="251.1" x2="-87.1" y2="251.9"/>
        <line x1="-84.4" y1="250.3" x2="-85.4" y2="251.1"/>
        <line x1="233.0" y1="190.6" x2="233.0" y2="191.0"/>
        <line x1="25.6" y1="198.4" x2="24.9" y2="197.3"/>
        <line x1="223.3" y1="212.6" x2="221.0" y2="211.5"/>
        <line x1="-84.4" y1="250.3" x2="-87.3" y2="249.6"/>
        <line x1="255.5" y1="148.8" x2="254.4" y2="149.9"/>
        <line x1="24.9" y1="197.3" x2="24.0" y2="195.8"/>
        <line x1="21.5" y1="194.5" x2="21.2" y2="194.6"/>
        <line x1="78.3" y1="124.7" x2="77.6" y2="125.4"/>
        <line x1="254.0" y1="147.9" x2="255.0" y2="147.5"/>
        <line x1="222.5" y1="211.9" x2="221.0" y2="211.5"/>
        <line x1="254.5" y1="147.8" x2="256.8" y2="147.3"/>
        <line x1="77.7" y1="125.1" x2="79.9" y2="124.0"/>
        <line x1="255.4" y1="148.6" x2="256.1" y2="146.3"/>
        <line x1="77.6" y1="125.4" x2="76.7" y2="126.2"/>
        <line x1="233.8" y1="192.7" x2="234.5" y2="196.6"/>
        <line x1="37.4" y1="264.4" x2="39.3" y2="261.9"/>
        <line x1="220.7" y1="212.3" x2="221.0" y2="211.5"/>
        <line x1="152.6" y1="333.1" x2="150.9" y2="331.8"/>
        <line x1="233.8" y1="192.7" x2="232.5" y2="191.4"/>
        <line x1="424.1" y1="219.9" x2="422.7" y2="218.3"/>
        <line x1="40.8" y1="264.3" x2="41.9" y2="263.1"/>
        <line x1="76.7" y1="124.6" x2="77.5" y2="125.9"/>
        <line x1="232.8" y1="186.9" x2="233.0" y2="187.8"/>
        <line x1="150.6" y1="330.7" x2="148.0" y2="331.7"/>
        <line x1="251.7" y1="147.6" x2="254.4" y2="146.6"/>
        <line x1="152.5" y1="332.4" x2="153.8" y2="333.8"/>
        <line x1="-87.2" y1="250.5" x2="-86.8" y2="250.6"/>
        <line x1="254.4" y1="149.9" x2="256.9" y2="148.8"/>
        <line x1="253.7" y1="148.0" x2="255.9" y2="149.3"/>
        <line x1="253.7" y1="148.0" x2="253.7" y2="148.4"/>
        <line x1="21.5" y1="194.5" x2="22.6" y2="196.4"/>
        <line x1="77.0" y1="123.9" x2="76.5" y2="124.5"/>
        <line x1="78.3" y1="124.7" x2="75.9" y2="126.1"/>
        <line x1="254.5" y1="147.8" x2="254.4" y2="149.9"/>
        <line x1="424.9" y1="219.4" x2="424.0" y2="219.0"/>
        <line x1="254.0" y1="147.9" x2="252.8" y2="147.9"/>
        <line x1="-83.8" y1="248.6" x2="-84.8" y2="249.2"/>
        <line x1="77.7" y1="125.1" x2="77.0" y2="123.9"/>
        <line x1="153.7" y1="334.1" x2="150.1" y2="334.0"/>
        <line x1="37.0" y1="260.1" x2="36.2" y2="261.1"/>
        <line x1="153.1" y1="334.2" x2="155.1" y2="333.7"/>
        <line x1="152.6" y1="333.1" x2="151.7" y2="334.0"/>
        <line x1="153.7" y1="334.1" x2="152.4" y2="330.9"/>
        <line x1="424.2" y1="217.6" x2="424.9" y2="219.4"/>
        <line x1="-87.5" y1="251.9" x2="-87.8" y2="251.5"/>
        <line x1="-84.4" y1="248.8" x2="-83.7" y2="249.3"/>
        <line x1="39.1" y1="263.5" x2="40.4" y2="263.7"/>
        <line x1="234.6" y1="190.9" x2="233.4" y2="191.1"/>
        <line x1="152.5" y1="332.4" x2="150.4" y2="333.7"/>
        <line x1="149.3" y1="331.9" x2="151.0" y2="331.9"/>
        <line x1="38.2" y1="260.2" x2="36.2" y2="259.8"/>
        <line x1="38.2" y1="262.5" x2="34.2" y2="262.5"/>
        <line x1="-89.0" y1="250.6" x2="-86.2" y2="251.0"/>
        <line x1="255.9" y1="149.3" x2="253.1" y2="146.7"/>
        <line x1="79.9" y1="124.0" x2="78.1" y2="123.8"/>
        <line x1="-88.3" y1="251.1" x2="-87.5" y2="251.9"/>
        <line x1="75.9" y1="126.1" x2="77.2" y2="124.7"/>
        <line x1="233.0" y1="190.6" x2="233.5" y2="190.9"/>
        <line x1="39.7" y1="262.5" x2="35.1" y2="263.9"/>
        <line x1="223.3" y1="212.6" x2="220.7" y2="212.3"/>
        <line x1="-82.6" y1="249.1" x2="-83.8" y2="248.6"/>
        <line x1="424.0" y1="219.0" x2="421.0" y2="218.4"/>
        <line x1="253.7" y1="148.0" x2="258.1" y2="148.6"/>
        <line x1="24.9" y1="197.3" x2="22.6" y2="196.7"/>
        <line x1="78.3" y1="124.7" x2="79.2" y2="124.8"/>
        <line x1="153.6" y1="330.9" x2="153.8" y2="333.8"/>
        <line x1="152.2" y1="332.3" x2="151.6" y2="331.8"/>
        <line x1="151.0" y1="331.9" x2="151.6" y2="331.8"/>
        <line x1="35.4" y1="262.3" x2="35.3" y2="262.7"/>
        <line x1="232.5" y1="187.3" x2="232.8" y2="186.9"/>
        <line x1="425.2" y1="217.8" x2="422.8" y2="218.2"/>
        <line x1="222.5" y1="211.9" x2="220.7" y2="212.3"/>
      </g>
      <g class="nodes">
        <circle cx="255.7" cy="148.3" r="2.5" fill="#90a4ae" opacity="0.60"/>
        <circle cx="255.5" cy="148.8" r="2.5" fill="#90a4ae" opacity="0.60"/>
        <circle cx="254.0" cy="147.9" r="2.5" fill="#90a4ae" opacity="0.60"/>
        <circle cx="254.8" cy="148.7" r="2.5" fill="#90a4ae" opacity="0.60"/>
        <circle cx="255.6" cy="148.7" r="2.5" fill="#90a4ae" opacity="0.60"/>
        <circle cx="257.5" cy="147.6" r="2.5" fill="#90a4ae" opacity="0.60"/>
        <circle cx="256.5" cy="148.6" r="2.5" fill="#90a4ae" opacity="0.60"/>
        <circle cx="255.0" cy="147.5" r="2.5" fill="#90a4ae" opacity="0.60"/>
        <circle cx="252.8" cy="147.9" r="2.5" fill="#90a4ae" opacity="0.60"/>
        <circle cx="253.1" cy="146.7" r="2.5" fill="#90a4ae" opacity="0.60"/>
        <circle cx="252.7" cy="147.9" r="2.5" fill="#90a4ae" opacity="0.60"/>
        <circle cx="254.5" cy="147.8" r="2.5" fill="#90a4ae" opacity="0.60"/>
        <circle cx="257.1" cy="148.1" r="2.5" fill="#90a4ae" opacity="0.60"/>
        <circle cx="254.4" cy="146.6" r="2.5" fill="#90a4ae" opacity="0.60"/>
        <circle cx="256.1" cy="146.3" r="2.5" fill="#90a4ae" opacity="0.60"/>
        <circle cx="254.8" cy="147.5" r="2.5" fill="#90a4ae" opacity="0.60"/>
        <circle cx="255.4" cy="148.6" r="2.5" fill="#90a4ae" opacity="0.60"/>
        <circle cx="254.4" cy="150.2" r="2.5" fill="#90a4ae" opacity="0.60"/>
        <circle cx="256.9" cy="148.8" r="2.5" fill="#90a4ae" opacity="0.60"/>
        <circle cx="254.4" cy="149.9" r="2.5" fill="#90a4ae" opacity="0.60"/>
        <circle cx="252.4" cy="149.6" r="2.5" fill="#90a4ae" opacity="0.60"/>
        <circle cx="256.8" cy="147.3" r="2.5" fill="#90a4ae" opacity="0.60"/>
        <circle cx="255.9" cy="149.3" r="2.5" fill="#90a4ae" opacity="0.60"/>
        <circle cx="254.9" cy="148.0" r="2.5" fill="#90a4ae" opacity="0.61"/>
        <circle cx="258.1" cy="148.6" r="2.5" fill="#90a4ae" opacity="0.61"/>
        <circle cx="251.7" cy="147.6" r="2.5" fill="#90a4ae" opacity="0.61"/>
        <circle cx="253.7" cy="148.0" r="2.5" fill="#90a4ae" opacity="0.61"/>
        <circle cx="253.7" cy="148.4" r="2.5" fill="#90a4ae" opacity="0.61"/>
        <circle cx="255.0" cy="147.4" r="2.5" fill="#90a4ae" opacity="0.61"/>
        <circle cx="425.2" cy="218.6" r="3.0" fill="#90a4ae" opacity="0.72"/>
        <circle cx="424.2" cy="217.6" r="3.0" fill="#90a4ae" opacity="0.72"/>
        <circle cx="425.2" cy="217.8" r="3.0" fill="#90a4ae" opacity="0.72"/>
        <circle cx="422.8" cy="218.2" r="3.0" fill="#6c5ce7" opacity="0.72"/>
        <circle cx="425.0" cy="218.2" r="3.0" fill="#90a4ae" opacity="0.72"/>
        <circle cx="424.0" cy="219.0" r="3.0" fill="#90a4ae" opacity="0.72"/>
        <circle cx="423.0" cy="219.0" r="3.0" fill="#90a4ae" opacity="0.72"/>
        <circle cx="425.9" cy="218.5" r="3.0" fill="#90a4ae" opacity="0.72"/>
        <circle cx="424.9" cy="217.2" r="3.0" fill="#90a4ae" opacity="0.72"/>
        <circle cx="422.6" cy="219.2" r="3.0" fill="#90a4ae" opacity="0.72"/>
        <circle cx="425.4" cy="217.9" r="3.0" fill="#90a4ae" opacity="0.72"/>
        <circle cx="424.9" cy="219.4" r="3.0" fill="#90a4ae" opacity="0.72"/>
        <circle cx="422.6" cy="218.8" r="3.0" fill="#90a4ae" opacity="0.72"/>
        <circle cx="423.0" cy="217.6" r="3.0" fill="#90a4ae" opacity="0.72"/>
        <circle cx="423.2" cy="219.6" r="3.0" fill="#6c5ce7" opacity="0.72"/>
        <circle cx="423.5" cy="218.6" r="3.0" fill="#90a4ae" opacity="0.72"/>
        <circle cx="421.0" cy="218.4" r="3.0" fill="#90a4ae" opacity="0.72"/>
        <circle cx="422.7" cy="218.3" r="3.0" fill="#90a4ae" opacity="0.72"/>
        <circle cx="424.1" cy="219.9" r="3.0" fill="#90a4ae" opacity="0.72"/>
        <circle cx="234.2" cy="187.9" r="3.1" fill="#90a4ae" opacity="0.74"/>
        <circle cx="232.8" cy="186.9" r="3.1" fill="#90a4ae" opacity="0.74"/>
        <circle cx="232.5" cy="187.3" r="3.1" fill="#90a4ae" opacity="0.74"/>
        <circle cx="232.2" cy="187.2" r="3.1" fill="#90a4ae" opacity="0.74"/>
        <circle cx="232.9" cy="187.5" r="3.1" fill="#90a4ae" opacity="0.74"/>
        <circle cx="233.0" cy="187.8" r="3.1" fill="#90a4ae" opacity="0.74"/>
        <circle cx="234.1" cy="189.1" r="3.1" fill="#90a4ae" opacity="0.74"/>
        <circle cx="233.0" cy="190.8" r="3.1" fill="#90a4ae" opacity="0.74"/>
        <circle cx="233.1" cy="189.2" r="3.1" fill="#90a4ae" opacity="0.74"/>
        <circle cx="233.1" cy="189.5" r="3.1" fill="#90a4ae" opacity="0.74"/>
        <circle cx="234.6" cy="190.9" r="3.1" fill="#90a4ae" opacity="0.74"/>
        <circle cx="231.7" cy="188.9" r="3.1" fill="#90a4ae" opacity="0.74"/>
        <circle cx="233.4" cy="191.1" r="3.1" fill="#90a4ae" opacity="0.74"/>
        <circle cx="231.5" cy="188.9" r="3.1" fill="#90a4ae" opacity="0.74"/>
        <circle cx="232.5" cy="191.4" r="3.1" fill="#90a4ae" opacity="0.74"/>
        <circle cx="233.0" cy="190.6" r="3.1" fill="#90a4ae" opacity="0.74"/>
        <circle cx="233.0" cy="191.0" r="3.1" fill="#90a4ae" opacity="0.74"/>
        <circle cx="233.5" cy="190.9" r="3.1" fill="#90a4ae" opacity="0.74"/>
        <circle cx="233.8" cy="192.7" r="3.1" fill="#6c5ce7" opacity="0.74"/>
        <circle cx="233.6" cy="194.2" r="3.1" fill="#90a4ae" opacity="0.74"/>
        <circle cx="233.9" cy="195.7" r="3.1" fill="#90a4ae" opacity="0.74"/>
        <circle cx="234.1" cy="196.0" r="3.1" fill="#90a4ae" opacity="0.74"/>
        <circle cx="234.2" cy="196.1" r="3.1" fill="#90a4ae" opacity="0.74"/>
        <circle cx="234.5" cy="195.9" r="3.1" fill="#90a4ae" opacity="0.74"/>
        <circle cx="234.5" cy="196.6" r="3.1" fill="#90a4ae" opacity="0.74"/>
        <circle cx="233.4" cy="205.8" r="3.1" fill="#90a4ae" opacity="0.75"/>
        <circle cx="232.9" cy="206.0" r="3.1" fill="#6c5ce7" opacity="0.75"/>
        <circle cx="233.0" cy="206.1" r="3.1" fill="#90a4ae" opacity="0.75"/>
        <circle cx="233.2" cy="206.1" r="3.1" fill="#9b59b6" opacity="0.75"/>
        <circle cx="232.9" cy="206.3" r="3.1" fill="#6c5ce7" opacity="0.75"/>
        <circle cx="233.1" cy="205.8" r="3.1" fill="#90a4ae" opacity="0.75"/>
        <circle cx="233.5" cy="206.7" r="3.1" fill="#90a4ae" opacity="0.75"/>
        <circle cx="232.0" cy="205.5" r="3.1" fill="#90a4ae" opacity="0.75"/>
        <circle cx="153.8" cy="333.1" r="3.2" fill="#90a4ae" opacity="0.77"/>
        <circle cx="151.6" cy="331.8" r="3.2" fill="#90a4ae" opacity="0.77"/>
        <circle cx="152.5" cy="331.3" r="3.2" fill="#90a4ae" opacity="0.77"/>
        <circle cx="150.6" cy="330.7" r="3.2" fill="#90a4ae" opacity="0.77"/>
        <circle cx="155.1" cy="333.7" r="3.2" fill="#90a4ae" opacity="0.77"/>
        <circle cx="153.1" cy="334.2" r="3.2" fill="#90a4ae" opacity="0.77"/>
        <circle cx="153.2" cy="331.5" r="3.2" fill="#90a4ae" opacity="0.77"/>
        <circle cx="152.2" cy="332.3" r="3.2" fill="#90a4ae" opacity="0.77"/>
        <circle cx="153.5" cy="331.4" r="3.2" fill="#90a4ae" opacity="0.77"/>
        <circle cx="150.4" cy="332.7" r="3.2" fill="#90a4ae" opacity="0.77"/>
        <circle cx="152.4" cy="330.9" r="3.2" fill="#90a4ae" opacity="0.77"/>
        <circle cx="150.1" cy="332.3" r="3.2" fill="#90a4ae" opacity="0.77"/>
        <circle cx="148.0" cy="331.7" r="3.2" fill="#90a4ae" opacity="0.77"/>
        <circle cx="153.6" cy="330.9" r="3.2" fill="#90a4ae" opacity="0.77"/>
        <circle cx="153.7" cy="334.1" r="3.2" fill="#90a4ae" opacity="0.77"/>
        <circle cx="150.1" cy="334.0" r="3.2" fill="#90a4ae" opacity="0.77"/>
        <circle cx="151.5" cy="332.7" r="3.2" fill="#90a4ae" opacity="0.77"/>
        <circle cx="152.6" cy="333.1" r="3.2" fill="#90a4ae" opacity="0.77"/>
        <circle cx="148.6" cy="332.0" r="3.2" fill="#90a4ae" opacity="0.77"/>
        <circle cx="149.5" cy="333.0" r="3.2" fill="#90a4ae" opacity="0.77"/>
        <circle cx="151.7" cy="334.0" r="3.2" fill="#90a4ae" opacity="0.77"/>
        <circle cx="148.0" cy="334.0" r="3.2" fill="#90a4ae" opacity="0.77"/>
        <circle cx="149.3" cy="331.9" r="3.2" fill="#90a4ae" opacity="0.77"/>
        <circle cx="153.8" cy="333.8" r="3.2" fill="#90a4ae" opacity="0.77"/>
        <circle cx="151.0" cy="331.9" r="3.2" fill="#90a4ae" opacity="0.77"/>
        <circle cx="150.9" cy="331.8" r="3.2" fill="#90a4ae" opacity="0.77"/>
        <circle cx="152.7" cy="335.2" r="3.2" fill="#90a4ae" opacity="0.77"/>
        <circle cx="150.6" cy="333.5" r="3.2" fill="#90a4ae" opacity="0.77"/>
        <circle cx="150.4" cy="333.7" r="3.2" fill="#90a4ae" opacity="0.77"/>
        <circle cx="152.5" cy="332.4" r="3.2" fill="#90a4ae" opacity="0.77"/>
        <circle cx="152.6" cy="333.0" r="3.2" fill="#90a4ae" opacity="0.77"/>
        <circle cx="149.5" cy="331.5" r="3.2" fill="#90a4ae" opacity="0.77"/>
        <circle cx="149.0" cy="332.8" r="3.3" fill="#90a4ae" opacity="0.78"/>
        <circle cx="222.5" cy="211.9" r="3.4" fill="#90a4ae" opacity="0.81"/>
        <circle cx="223.3" cy="212.6" r="3.4" fill="#90a4ae" opacity="0.82"/>
        <circle cx="221.3" cy="211.0" r="3.4" fill="#90a4ae" opacity="0.82"/>
        <circle cx="222.6" cy="212.1" r="3.4" fill="#90a4ae" opacity="0.82"/>
        <circle cx="222.2" cy="211.8" r="3.4" fill="#90a4ae" opacity="0.82"/>
        <circle cx="221.3" cy="212.0" r="3.4" fill="#90a4ae" opacity="0.82"/>
        <circle cx="221.0" cy="211.5" r="3.4" fill="#90a4ae" opacity="0.82"/>
        <circle cx="221.3" cy="211.3" r="3.4" fill="#90a4ae" opacity="0.82"/>
        <circle cx="221.8" cy="212.1" r="3.4" fill="#90a4ae" opacity="0.82"/>
        <circle cx="222.4" cy="211.5" r="3.4" fill="#90a4ae" opacity="0.82"/>
        <circle cx="221.7" cy="211.2" r="3.4" fill="#90a4ae" opacity="0.82"/>
        <circle cx="220.7" cy="212.3" r="3.4" fill="#90a4ae" opacity="0.82"/>
        <circle cx="79.4" cy="123.4" r="3.5" fill="#90a4ae" opacity="0.84"/>
        <circle cx="77.0" cy="123.9" r="3.5" fill="#90a4ae" opacity="0.84"/>
        <circle cx="79.9" cy="124.0" r="3.5" fill="#90a4ae" opacity="0.84"/>
        <circle cx="78.1" cy="123.8" r="3.5" fill="#90a4ae" opacity="0.84"/>
        <circle cx="78.3" cy="125.2" r="3.5" fill="#90a4ae" opacity="0.84"/>
        <circle cx="77.7" cy="125.1" r="3.5" fill="#90a4ae" opacity="0.84"/>
        <circle cx="78.3" cy="124.7" r="3.5" fill="#90a4ae" opacity="0.84"/>
        <circle cx="77.5" cy="125.1" r="3.5" fill="#90a4ae" opacity="0.84"/>
        <circle cx="79.2" cy="124.8" r="3.6" fill="#90a4ae" opacity="0.85"/>
        <circle cx="75.9" cy="126.1" r="3.6" fill="#90a4ae" opacity="0.85"/>
        <circle cx="76.7" cy="124.6" r="3.6" fill="#90a4ae" opacity="0.85"/>
        <circle cx="77.5" cy="125.9" r="3.6" fill="#90a4ae" opacity="0.85"/>
        <circle cx="76.7" cy="126.2" r="3.6" fill="#90a4ae" opacity="0.85"/>
        <circle cx="77.6" cy="125.4" r="3.6" fill="#90a4ae" opacity="0.85"/>
        <circle cx="76.5" cy="124.5" r="3.6" fill="#90a4ae" opacity="0.85"/>
        <circle cx="77.2" cy="124.7" r="3.6" fill="#90a4ae" opacity="0.85"/>
        <circle cx="21.5" cy="194.5" r="3.6" fill="#90a4ae" opacity="0.87"/>
        <circle cx="21.2" cy="194.6" r="3.7" fill="#90a4ae" opacity="0.87"/>
        <circle cx="23.6" cy="195.5" r="3.7" fill="#90a4ae" opacity="0.87"/>
        <circle cx="25.7" cy="198.1" r="3.7" fill="#90a4ae" opacity="0.87"/>
        <circle cx="25.6" cy="198.4" r="3.7" fill="#90a4ae" opacity="0.87"/>
        <circle cx="23.1" cy="196.0" r="3.7" fill="#90a4ae" opacity="0.87"/>
        <circle cx="24.0" cy="195.8" r="3.7" fill="#90a4ae" opacity="0.87"/>
        <circle cx="23.7" cy="196.7" r="3.7" fill="#90a4ae" opacity="0.87"/>
        <circle cx="24.9" cy="197.3" r="3.7" fill="#90a4ae" opacity="0.87"/>
        <circle cx="26.0" cy="198.4" r="3.7" fill="#90a4ae" opacity="0.87"/>
        <circle cx="25.4" cy="198.1" r="3.7" fill="#90a4ae" opacity="0.87"/>
        <circle cx="22.6" cy="196.4" r="3.7" fill="#90a4ae" opacity="0.87"/>
        <circle cx="24.4" cy="197.6" r="3.7" fill="#90a4ae" opacity="0.87"/>
        <circle cx="23.0" cy="196.2" r="3.7" fill="#90a4ae" opacity="0.87"/>
        <circle cx="22.6" cy="196.7" r="3.7" fill="#90a4ae" opacity="0.87"/>
        <circle cx="36.8" cy="260.8" r="3.9" fill="#90a4ae" opacity="0.92"/>
        <circle cx="38.2" cy="260.2" r="3.9" fill="#90a4ae" opacity="0.92"/>
        <circle cx="38.0" cy="260.6" r="3.9" fill="#90a4ae" opacity="0.93"/>
        <circle cx="36.2" cy="259.8" r="3.9" fill="#90a4ae" opacity="0.93"/>
        <circle cx="37.0" cy="260.1" r="3.9" fill="#90a4ae" opacity="0.93"/>
        <circle cx="39.3" cy="261.9" r="3.9" fill="#90a4ae" opacity="0.93"/>
        <circle cx="38.3" cy="262.5" r="3.9" fill="#90a4ae" opacity="0.93"/>
        <circle cx="37.7" cy="259.2" r="3.9" fill="#90a4ae" opacity="0.93"/>
        <circle cx="35.6" cy="260.5" r="3.9" fill="#90a4ae" opacity="0.93"/>
        <circle cx="41.9" cy="263.1" r="3.9" fill="#fd79a8" opacity="0.93"/>
        <circle cx="36.2" cy="261.1" r="3.9" fill="#90a4ae" opacity="0.93"/>
        <circle cx="39.8" cy="261.5" r="3.9" fill="#90a4ae" opacity="0.93"/>
        <circle cx="40.7" cy="262.8" r="3.9" fill="#90a4ae" opacity="0.93"/>
        <circle cx="35.5" cy="261.3" r="3.9" fill="#90a4ae" opacity="0.93"/>
        <circle cx="37.0" cy="260.6" r="3.9" fill="#90a4ae" opacity="0.93"/>
        <circle cx="40.1" cy="263.7" r="3.9" fill="#90a4ae" opacity="0.93"/>
        <circle cx="40.4" cy="263.7" r="3.9" fill="#fd79a8" opacity="0.93"/>
        <circle cx="40.8" cy="264.3" r="3.9" fill="#90a4ae" opacity="0.93"/>
        <circle cx="38.2" cy="262.5" r="3.9" fill="#90a4ae" opacity="0.93"/>
        <circle cx="41.7" cy="262.8" r="3.9" fill="#90a4ae" opacity="0.93"/>
        <circle cx="38.9" cy="263.4" r="3.9" fill="#90a4ae" opacity="0.93"/>
        <circle cx="37.4" cy="264.4" r="3.9" fill="#90a4ae" opacity="0.93"/>
        <circle cx="36.9" cy="262.6" r="3.9" fill="#90a4ae" opacity="0.93"/>
        <circle cx="34.2" cy="262.5" r="3.9" fill="#90a4ae" opacity="0.93"/>
        <circle cx="39.1" cy="263.5" r="3.9" fill="#fd79a8" opacity="0.93"/>
        <circle cx="37.9" cy="263.7" r="3.9" fill="#90a4ae" opacity="0.93"/>
        <circle cx="35.4" cy="262.3" r="3.9" fill="#90a4ae" opacity="0.93"/>
        <circle cx="34.6" cy="264.1" r="3.9" fill="#90a4ae" opacity="0.93"/>
        <circle cx="34.6" cy="264.5" r="3.9" fill="#90a4ae" opacity="0.93"/>
        <circle cx="39.7" cy="262.5" r="3.9" fill="#90a4ae" opacity="0.93"/>
        <circle cx="35.3" cy="262.7" r="3.9" fill="#90a4ae" opacity="0.93"/>
        <circle cx="35.1" cy="263.9" r="3.9" fill="#90a4ae" opacity="0.93"/>
        <circle cx="-84.8" cy="249.2" r="4.0" fill="#90a4ae" opacity="0.94"/>
        <circle cx="-84.5" cy="248.9" r="4.0" fill="#90a4ae" opacity="0.94"/>
        <circle cx="-83.7" cy="249.3" r="4.0" fill="#90a4ae" opacity="0.94"/>
        <circle cx="-83.4" cy="249.1" r="4.0" fill="#90a4ae" opacity="0.94"/>
        <circle cx="-82.6" cy="249.1" r="4.0" fill="#90a4ae" opacity="0.94"/>
        <circle cx="-86.2" cy="251.0" r="4.0" fill="#90a4ae" opacity="0.94"/>
        <circle cx="-84.4" cy="248.8" r="4.0" fill="#90a4ae" opacity="0.94"/>
        <circle cx="-84.4" cy="250.3" r="4.0" fill="#90a4ae" opacity="0.94"/>
        <circle cx="-87.3" cy="249.6" r="4.0" fill="#90a4ae" opacity="0.94"/>
        <circle cx="-84.0" cy="249.6" r="4.0" fill="#90a4ae" opacity="0.94"/>
        <circle cx="-87.0" cy="249.2" r="4.0" fill="#90a4ae" opacity="0.94"/>
        <circle cx="-83.8" cy="248.6" r="4.0" fill="#90a4ae" opacity="0.94"/>
        <circle cx="-89.0" cy="250.6" r="4.0" fill="#90a4ae" opacity="0.95"/>
        <circle cx="-85.4" cy="251.1" r="4.0" fill="#90a4ae" opacity="0.95"/>
        <circle cx="-85.8" cy="250.3" r="4.0" fill="#90a4ae" opacity="0.95"/>
        <circle cx="-86.4" cy="249.8" r="4.0" fill="#90a4ae" opacity="0.95"/>
        <circle cx="-87.5" cy="251.9" r="4.0" fill="#90a4ae" opacity="0.95"/>
        <circle cx="-88.3" cy="251.1" r="4.0" fill="#90a4ae" opacity="0.95"/>
        <circle cx="-87.8" cy="251.5" r="4.0" fill="#90a4ae" opacity="0.95"/>
        <circle cx="-89.4" cy="250.8" r="4.0" fill="#90a4ae" opacity="0.95"/>
        <circle cx="-87.1" cy="251.9" r="4.0" fill="#90a4ae" opacity="0.95"/>
        <circle cx="-89.1" cy="251.3" r="4.0" fill="#90a4ae" opacity="0.95"/>
        <circle cx="-87.8" cy="251.2" r="4.0" fill="#90a4ae" opacity="0.95"/>
        <circle cx="-86.3" cy="250.6" r="4.0" fill="#90a4ae" opacity="0.95"/>
        <circle cx="-86.8" cy="250.6" r="4.0" fill="#90a4ae" opacity="0.95"/>
        <circle cx="-87.2" cy="250.5" r="4.0" fill="#90a4ae" opacity="0.95"/>
      </g>
    </g>
  </g>
  <text x="15" y="25" fill="#e94560" font-family="system-ui" font-size="14" font-weight="600">3D Proof Map</text>
  <text x="15" y="42" fill="#b8c7d9" font-family="system-ui" font-size="10">WebGL · Rotate · Zoom · Select</text>
</svg>