<svg xmlns="http://www.w3.org/2000/svg" viewBox="0 0 800 600">
  <rect width="800" height="600" fill="#0b0f14"/>
  <g stroke="rgba(207,216,220,0.25)" stroke-width="0.5">
    <line x1="293.0" y1="225.1" x2="251.5" y2="352.0"/>
    <line x1="409.2" y1="207.4" x2="236.9" y2="268.8"/>
    <line x1="338.1" y1="209.1" x2="260.6" y2="238.6"/>
    <line x1="373.7" y1="420.3" x2="322.3" y2="198.4"/>
    <line x1="210.1" y1="225.9" x2="535.0" y2="340.9"/>
    <line x1="613.3" y1="309.2" x2="379.4" y2="446.0"/>
    <line x1="401.0" y1="179.6" x2="482.0" y2="244.4"/>
    <line x1="378.0" y1="137.0" x2="404.9" y2="94.9"/>
    <line x1="459.3" y1="131.6" x2="456.4" y2="459.2"/>
    <line x1="302.8" y1="389.6" x2="494.8" y2="150.2"/>
    <line x1="293.5" y1="299.0" x2="141.5" y2="252.6"/>
    <line x1="305.3" y1="359.2" x2="459.3" y2="131.6"/>
    <line x1="189.6" y1="277.0" x2="254.9" y2="342.1"/>
    <line x1="256.7" y1="392.3" x2="499.8" y2="329.4"/>
    <line x1="189.6" y1="277.0" x2="302.8" y2="245.0"/>
    <line x1="404.9" y1="94.9" x2="322.3" y2="198.4"/>
    <line x1="381.0" y1="257.6" x2="334.4" y2="187.3"/>
    <line x1="597.7" y1="226.2" x2="625.7" y2="277.8"/>
    <line x1="699.9" y1="278.4" x2="592.5" y2="340.8"/>
    <line x1="366.9" y1="270.6" x2="324.4" y2="122.1"/>
    <line x1="641.6" y1="328.4" x2="601.4" y2="274.8"/>
    <line x1="239.4" y1="283.0" x2="538.5" y2="402.9"/>
    <line x1="157.5" y1="159.8" x2="146.1" y2="153.7"/>
    <line x1="315.3" y1="325.0" x2="687.2" y2="238.2"/>
    <line x1="239.4" y1="283.0" x2="533.3" y2="371.6"/>
    <line x1="641.6" y1="328.4" x2="557.5" y2="267.2"/>
    <line x1="381.0" y1="257.6" x2="540.0" y2="251.3"/>
    <line x1="293.5" y1="299.0" x2="756.7" y2="403.6"/>
    <line x1="579.9" y1="259.9" x2="505.9" y2="245.6"/>
    <line x1="418.6" y1="172.0" x2="597.7" y2="226.2"/>
    <line x1="378.0" y1="137.0" x2="288.5" y2="187.2"/>
    <line x1="442.8" y1="161.2" x2="491.8" y2="409.3"/>
    <line x1="98.5" y1="180.5" x2="209.2" y2="135.3"/>
    <line x1="146.1" y1="153.7" x2="689.8" y2="431.0"/>
    <line x1="559.9" y1="436.6" x2="379.4" y2="446.0"/>
    <line x1="591.2" y1="261.2" x2="701.9" y2="209.3"/>
    <line x1="428.0" y1="222.8" x2="756.7" y2="403.6"/>
    <line x1="480.9" y1="224.7" x2="683.1" y2="261.4"/>
    <line x1="321.1" y1="200.7" x2="338.0" y2="152.3"/>
    <line x1="348.6" y1="202.3" x2="404.9" y2="94.9"/>
    <line x1="348.6" y1="202.3" x2="354.4" y2="233.2"/>
    <line x1="648.7" y1="396.9" x2="494.5" y2="502.5"/>
    <line x1="338.0" y1="152.3" x2="653.6" y2="317.2"/>
    <line x1="559.1" y1="246.1" x2="613.3" y2="309.2"/>
    <line x1="160.7" y1="301.9" x2="273.8" y2="242.4"/>
    <line x1="597.7" y1="226.2" x2="540.0" y2="251.3"/>
    <line x1="377.6" y1="146.3" x2="321.1" y2="200.7"/>
    <line x1="433.8" y1="393.9" x2="592.5" y2="340.8"/>
    <line x1="408.9" y1="307.0" x2="482.0" y2="244.4"/>
    <line x1="373.7" y1="420.3" x2="354.4" y2="233.2"/>
    <line x1="677.3" y1="252.5" x2="613.5" y2="222.8"/>
    <line x1="432.4" y1="110.0" x2="462.3" y2="199.5"/>
    <line x1="601.4" y1="274.8" x2="557.5" y2="267.2"/>
    <line x1="214.9" y1="225.5" x2="251.5" y2="352.0"/>
    <line x1="462.3" y1="199.5" x2="599.6" y2="232.4"/>
    <line x1="96.6" y1="302.4" x2="273.8" y2="242.4"/>
    <line x1="232.6" y1="156.2" x2="234.2" y2="233.6"/>
    <line x1="289.9" y1="226.5" x2="688.9" y2="338.1"/>
    <line x1="480.9" y1="224.7" x2="206.4" y2="269.9"/>
    <line x1="239.2" y1="253.7" x2="302.8" y2="245.0"/>
    <line x1="193.0" y1="321.7" x2="577.2" y2="236.8"/>
    <line x1="474.3" y1="413.0" x2="257.3" y2="218.3"/>
    <line x1="266.0" y1="203.3" x2="320.6" y2="91.3"/>
    <line x1="290.1" y1="146.6" x2="410.2" y2="251.0"/>
    <line x1="98.5" y1="180.5" x2="436.2" y2="471.7"/>
    <line x1="465.7" y1="157.4" x2="366.5" y2="415.1"/>
    <line x1="404.9" y1="94.9" x2="354.4" y2="233.2"/>
    <line x1="514.1" y1="455.7" x2="497.9" y2="74.4"/>
    <line x1="305.3" y1="359.2" x2="475.0" y2="402.4"/>
    <line x1="193.0" y1="321.7" x2="228.8" y2="118.2"/>
    <line x1="223.8" y1="241.7" x2="521.6" y2="348.3"/>
    <line x1="295.6" y1="120.1" x2="320.6" y2="91.3"/>
    <line x1="223.3" y1="301.8" x2="210.1" y2="225.9"/>
    <line x1="234.5" y1="275.5" x2="456.0" y2="463.8"/>
    <line x1="381.0" y1="257.6" x2="597.7" y2="226.2"/>
    <line x1="293.5" y1="299.0" x2="236.9" y2="268.8"/>
    <line x1="653.6" y1="317.2" x2="564.8" y2="250.2"/>
    <line x1="330.3" y1="273.4" x2="321.6" y2="70.0"/>
    <line x1="315.3" y1="325.0" x2="289.6" y2="328.5"/>
    <line x1="257.3" y1="218.3" x2="290.6" y2="191.7"/>
    <line x1="250.7" y1="181.3" x2="442.8" y2="161.2"/>
    <line x1="252.0" y1="215.2" x2="347.4" y2="455.4"/>
    <line x1="228.8" y1="118.2" x2="302.8" y2="171.0"/>
    <line x1="214.9" y1="262.7" x2="273.8" y2="242.4"/>
    <line x1="141.5" y1="252.6" x2="699.4" y2="425.6"/>
    <line x1="294.0" y1="245.5" x2="701.9" y2="209.3"/>
    <line x1="428.0" y1="222.8" x2="236.9" y2="268.8"/>
    <line x1="412.6" y1="227.0" x2="440.7" y2="312.9"/>
    <line x1="328.0" y1="294.1" x2="559.1" y2="246.1"/>
    <line x1="586.0" y1="560.0" x2="646.1" y2="404.0"/>
    <line x1="290.1" y1="146.6" x2="423.9" y2="164.1"/>
    <line x1="254.9" y1="342.1" x2="266.0" y2="203.3"/>
    <line x1="603.3" y1="242.6" x2="506.9" y2="277.8"/>
    <line x1="236.4" y1="244.6" x2="521.6" y2="348.3"/>
    <line x1="539.1" y1="496.6" x2="409.2" y2="207.4"/>
    <line x1="220.8" y1="288.2" x2="543.5" y2="224.9"/>
    <line x1="355.4" y1="280.7" x2="497.9" y2="74.4"/>
    <line x1="193.0" y1="321.7" x2="214.9" y2="225.5"/>
    <line x1="297.9" y1="40.0" x2="579.9" y2="259.9"/>
    <line x1="390.8" y1="257.3" x2="363.5" y2="423.6"/>
    <line x1="422.5" y1="173.6" x2="338.0" y2="152.3"/>
    <line x1="239.4" y1="283.0" x2="533.8" y2="518.2"/>
    <line x1="409.2" y1="207.4" x2="613.5" y2="222.8"/>
    <line x1="260.6" y1="238.6" x2="596.7" y2="353.4"/>
    <line x1="404.2" y1="411.5" x2="273.8" y2="242.4"/>
    <line x1="310.2" y1="156.3" x2="742.1" y2="190.1"/>
    <line x1="206.7" y1="288.9" x2="226.2" y2="200.5"/>
    <line x1="345.1" y1="210.0" x2="671.4" y2="227.8"/>
    <line x1="228.8" y1="118.2" x2="395.2" y2="160.9"/>
    <line x1="198.4" y1="293.9" x2="465.7" y2="157.4"/>
    <line x1="535.0" y1="340.9" x2="579.2" y2="177.6"/>
    <line x1="330.3" y1="273.4" x2="390.8" y2="257.3"/>
    <line x1="294.0" y1="245.5" x2="406.0" y2="440.7"/>
    <line x1="189.6" y1="277.0" x2="311.4" y2="385.2"/>
    <line x1="514.1" y1="455.7" x2="297.9" y2="40.0"/>
    <line x1="214.9" y1="262.7" x2="559.9" y2="436.6"/>
    <line x1="699.9" y1="278.4" x2="641.6" y2="328.4"/>
    <line x1="321.6" y1="70.0" x2="462.3" y2="199.5"/>
    <line x1="522.2" y1="436.1" x2="342.2" y2="314.1"/>
    <line x1="223.8" y1="241.7" x2="431.5" y2="526.7"/>
    <line x1="409.2" y1="207.4" x2="677.3" y2="252.5"/>
    <line x1="288.5" y1="187.2" x2="334.8" y2="107.1"/>
    <line x1="310.2" y1="156.3" x2="345.1" y2="210.0"/>
    <line x1="256.6" y1="309.1" x2="440.7" y2="312.9"/>
    <line x1="559.9" y1="436.6" x2="613.3" y2="309.2"/>
    <line x1="334.8" y1="107.1" x2="348.6" y2="202.3"/>
    <line x1="416.3" y1="416.5" x2="451.4" y2="410.9"/>
    <line x1="234.2" y1="233.6" x2="505.9" y2="245.6"/>
    <line x1="354.1" y1="226.8" x2="260.6" y2="238.6"/>
    <line x1="354.0" y1="267.0" x2="355.4" y2="280.7"/>
    <line x1="455.7" y1="141.9" x2="613.5" y2="222.8"/>
    <line x1="263.8" y1="241.8" x2="252.0" y2="215.2"/>
    <line x1="322.4" y1="313.1" x2="293.0" y2="225.1"/>
    <line x1="334.4" y1="187.3" x2="540.0" y2="251.3"/>
    <line x1="742.1" y1="190.1" x2="429.0" y2="367.8"/>
    <line x1="236.4" y1="244.6" x2="431.5" y2="526.7"/>
    <line x1="699.9" y1="278.4" x2="545.5" y2="337.7"/>
    <line x1="420.0" y1="369.2" x2="199.9" y2="229.2"/>
    <line x1="273.8" y1="242.4" x2="587.0" y2="378.3"/>
    <line x1="480.9" y1="224.7" x2="347.4" y2="455.4"/>
    <line x1="157.5" y1="159.8" x2="395.2" y2="160.9"/>
    <line x1="214.9" y1="115.9" x2="526.0" y2="165.0"/>
    <line x1="228.8" y1="118.2" x2="577.2" y2="236.8"/>
    <line x1="214.9" y1="225.5" x2="293.0" y2="225.1"/>
    <line x1="266.0" y1="203.3" x2="506.9" y2="277.8"/>
    <line x1="589.1" y1="415.1" x2="502.9" y2="469.7"/>
    <line x1="327.9" y1="142.4" x2="543.5" y2="224.9"/>
    <line x1="254.9" y1="342.1" x2="730.5" y2="306.3"/>
    <line x1="288.5" y1="187.2" x2="404.9" y2="94.9"/>
    <line x1="206.7" y1="288.9" x2="420.0" y2="369.2"/>
    <line x1="267.8" y1="250.5" x2="497.9" y2="74.4"/>
    <line x1="554.0" y1="240.6" x2="521.6" y2="348.3"/>
    <line x1="234.5" y1="275.5" x2="532.0" y2="491.0"/>
    <line x1="379.4" y1="153.8" x2="321.6" y2="70.0"/>
    <line x1="522.2" y1="436.1" x2="494.8" y2="150.2"/>
    <line x1="243.9" y1="134.8" x2="257.3" y2="218.3"/>
    <line x1="295.6" y1="120.1" x2="506.9" y2="277.8"/>
    <line x1="374.0" y1="413.5" x2="410.2" y2="251.0"/>
    <line x1="141.5" y1="252.6" x2="756.7" y2="403.6"/>
    <line x1="687.2" y1="238.2" x2="475.0" y2="402.4"/>
    <line x1="188.9" y1="329.9" x2="633.0" y2="387.2"/>
    <line x1="342.2" y1="314.1" x2="456.4" y2="459.2"/>
    <line x1="482.0" y1="244.4" x2="558.8" y2="165.5"/>
    <line x1="377.3" y1="422.1" x2="499.8" y2="329.4"/>
    <line x1="455.7" y1="141.9" x2="677.3" y2="252.5"/>
    <line x1="366.7" y1="414.4" x2="494.5" y2="502.5"/>
    <line x1="437.5" y1="330.2" x2="345.1" y2="210.0"/>
    <line x1="207.1" y1="233.6" x2="223.3" y2="301.8"/>
    <line x1="315.3" y1="325.0" x2="442.8" y2="161.2"/>
    <line x1="291.2" y1="210.7" x2="543.5" y2="224.9"/>
    <line x1="295.5" y1="328.4" x2="410.2" y2="251.0"/>
    <line x1="214.9" y1="262.7" x2="613.3" y2="309.2"/>
    <line x1="428.0" y1="222.8" x2="316.2" y2="416.6"/>
    <line x1="424.9" y1="402.9" x2="302.8" y2="171.0"/>
    <line x1="321.1" y1="200.7" x2="688.9" y2="338.1"/>
    <line x1="354.0" y1="267.0" x2="267.8" y2="250.5"/>
    <line x1="432.4" y1="110.0" x2="316.6" y2="129.3"/>
    <line x1="289.9" y1="226.5" x2="653.6" y2="317.2"/>
    <line x1="40.0" y1="124.2" x2="354.1" y2="226.8"/>
    <line x1="368.7" y1="267.5" x2="266.0" y2="203.3"/>
    <line x1="756.7" y1="403.6" x2="316.2" y2="416.6"/>
    <line x1="558.8" y1="165.5" x2="379.4" y2="446.0"/>
    <line x1="412.6" y1="227.0" x2="196.6" y2="144.2"/>
    <line x1="667.3" y1="214.5" x2="440.7" y2="312.9"/>
    <line x1="293.5" y1="299.0" x2="613.5" y2="222.8"/>
    <line x1="280.0" y1="218.1" x2="558.8" y2="165.5"/>
    <line x1="374.0" y1="413.5" x2="423.9" y2="164.1"/>
    <line x1="280.0" y1="218.1" x2="559.1" y2="246.1"/>
    <line x1="243.9" y1="134.8" x2="160.5" y2="117.4"/>
    <line x1="294.6" y1="359.1" x2="321.1" y2="200.7"/>
    <line x1="232.6" y1="156.2" x2="465.7" y2="157.4"/>
    <line x1="254.9" y1="342.1" x2="368.7" y2="267.5"/>
    <line x1="236.4" y1="244.6" x2="554.0" y2="240.6"/>
    <line x1="334.4" y1="187.3" x2="597.7" y2="226.2"/>
    <line x1="147.4" y1="116.8" x2="393.0" y2="389.8"/>
    <line x1="482.0" y1="244.4" x2="559.9" y2="436.6"/>
    <line x1="428.0" y1="222.8" x2="406.0" y2="440.7"/>
    <line x1="302.8" y1="389.6" x2="435.2" y2="492.5"/>
    <line x1="327.8" y1="117.8" x2="456.4" y2="459.2"/>
    <line x1="295.5" y1="328.4" x2="423.9" y2="164.1"/>
    <line x1="380.8" y1="424.3" x2="424.9" y2="402.9"/>
    <line x1="756.7" y1="403.6" x2="613.5" y2="222.8"/>
    <line x1="435.6" y1="292.3" x2="521.6" y2="348.3"/>
    <line x1="401.0" y1="179.6" x2="408.9" y2="307.0"/>
    <line x1="375.9" y1="175.1" x2="327.8" y2="117.8"/>
    <line x1="474.3" y1="413.0" x2="671.4" y2="227.8"/>
    <line x1="435.3" y1="483.2" x2="311.4" y2="385.2"/>
    <line x1="473.9" y1="442.2" x2="311.4" y2="385.2"/>
    <line x1="380.8" y1="424.3" x2="251.5" y2="352.0"/>
    <line x1="625.7" y1="275.5" x2="362.2" y2="392.3"/>
    <line x1="256.7" y1="392.3" x2="456.0" y2="463.8"/>
    <line x1="227.4" y1="241.2" x2="412.6" y2="227.0"/>
    <line x1="288.5" y1="187.2" x2="322.4" y2="313.1"/>
    <line x1="227.4" y1="241.2" x2="196.6" y2="144.2"/>
    <line x1="327.8" y1="117.8" x2="494.8" y2="150.2"/>
    <line x1="236.9" y1="268.8" x2="613.5" y2="222.8"/>
    <line x1="625.7" y1="277.8" x2="540.0" y2="251.3"/>
    <line x1="266.3" y1="192.2" x2="234.2" y2="233.6"/>
    <line x1="254.9" y1="342.1" x2="239.2" y2="253.7"/>
    <line x1="377.3" y1="422.1" x2="256.7" y2="392.3"/>
    <line x1="263.8" y1="241.8" x2="267.3" y2="64.0"/>
    <line x1="742.1" y1="190.1" x2="671.4" y2="227.8"/>
    <line x1="417.2" y1="348.9" x2="363.5" y2="423.6"/>
    <line x1="250.9" y1="236.2" x2="431.5" y2="526.7"/>
    <line x1="232.6" y1="156.2" x2="505.9" y2="245.6"/>
    <line x1="289.6" y1="328.5" x2="687.2" y2="238.2"/>
    <line x1="592.5" y1="340.8" x2="557.5" y2="267.2"/>
    <line x1="522.2" y1="436.1" x2="531.9" y2="366.2"/>
    <line x1="256.6" y1="309.1" x2="412.6" y2="227.0"/>
    <line x1="243.9" y1="134.8" x2="429.0" y2="367.8"/>
    <line x1="558.8" y1="165.5" x2="559.9" y2="436.6"/>
    <line x1="192.4" y1="114.4" x2="363.5" y2="423.6"/>
    <line x1="207.1" y1="233.6" x2="535.0" y2="340.9"/>
    <line x1="40.0" y1="124.2" x2="258.8" y2="208.9"/>
    <line x1="375.7" y1="409.7" x2="579.9" y2="259.9"/>
    <line x1="256.6" y1="309.1" x2="196.6" y2="144.2"/>
    <line x1="417.2" y1="348.9" x2="316.6" y2="129.3"/>
    <line x1="226.2" y1="200.5" x2="223.8" y2="241.7"/>
    <line x1="667.3" y1="214.5" x2="390.8" y2="257.3"/>
    <line x1="420.0" y1="369.2" x2="521.6" y2="348.3"/>
    <line x1="366.9" y1="270.6" x2="40.0" y2="124.2"/>
    <line x1="234.2" y1="233.6" x2="229.3" y2="225.7"/>
    <line x1="258.8" y1="208.9" x2="354.1" y2="226.8"/>
    <line x1="192.1" y1="249.4" x2="497.9" y2="74.4"/>
    <line x1="192.4" y1="114.4" x2="316.6" y2="129.3"/>
    <line x1="591.2" y1="261.2" x2="379.4" y2="446.0"/>
    <line x1="368.7" y1="267.5" x2="730.5" y2="306.3"/>
    <line x1="347.5" y1="296.7" x2="490.9" y2="377.7"/>
    <line x1="377.6" y1="146.3" x2="338.0" y2="152.3"/>
    <line x1="290.1" y1="146.6" x2="492.6" y2="459.0"/>
    <line x1="338.0" y1="152.3" x2="603.0" y2="267.5"/>
    <line x1="435.6" y1="292.3" x2="431.5" y2="526.7"/>
    <line x1="266.0" y1="203.3" x2="603.3" y2="242.6"/>
    <line x1="423.9" y1="164.1" x2="410.2" y2="251.0"/>
    <line x1="96.6" y1="302.4" x2="437.5" y2="330.2"/>
    <line x1="526.0" y1="165.0" x2="355.8" y2="533.4"/>
    <line x1="40.0" y1="124.2" x2="260.6" y2="238.6"/>
    <line x1="378.0" y1="137.0" x2="322.4" y2="313.1"/>
    <line x1="378.0" y1="137.0" x2="293.0" y2="225.1"/>
    <line x1="422.5" y1="173.6" x2="564.8" y2="250.2"/>
    <line x1="206.4" y1="269.9" x2="683.1" y2="261.4"/>
    <line x1="522.2" y1="436.1" x2="504.5" y2="212.3"/>
    <line x1="432.4" y1="110.0" x2="599.6" y2="232.4"/>
    <line x1="291.5" y1="355.3" x2="551.5" y2="394.9"/>
    <line x1="295.6" y1="120.1" x2="603.3" y2="242.6"/>
    <line x1="167.6" y1="382.5" x2="538.5" y2="402.9"/>
    <line x1="321.1" y1="200.7" x2="289.9" y2="226.5"/>
    <line x1="185.7" y1="283.0" x2="366.7" y2="414.4"/>
    <line x1="538.5" y1="402.9" x2="435.3" y2="483.2"/>
    <line x1="295.6" y1="120.1" x2="266.0" y2="203.3"/>
    <line x1="160.5" y1="117.4" x2="429.0" y2="367.8"/>
    <line x1="234.5" y1="275.5" x2="543.5" y2="224.9"/>
    <line x1="377.6" y1="146.3" x2="289.9" y2="226.5"/>
    <line x1="342.2" y1="314.1" x2="327.8" y2="117.8"/>
    <line x1="641.6" y1="328.4" x2="592.5" y2="340.8"/>
    <line x1="353.8" y1="450.6" x2="683.1" y2="261.4"/>
    <line x1="329.9" y1="390.7" x2="521.6" y2="348.3"/>
    <line x1="353.8" y1="450.6" x2="410.2" y2="251.0"/>
    <line x1="442.8" y1="161.2" x2="393.0" y2="389.8"/>
    <line x1="186.6" y1="241.0" x2="146.1" y2="153.7"/>
    <line x1="282.4" y1="179.6" x2="334.4" y2="187.3"/>
    <line x1="315.3" y1="325.0" x2="393.0" y2="389.8"/>
    <line x1="420.0" y1="369.2" x2="431.5" y2="526.7"/>
    <line x1="302.8" y1="245.0" x2="266.0" y2="203.3"/>
    <line x1="294.6" y1="359.1" x2="377.6" y2="146.3"/>
    <line x1="687.2" y1="238.2" x2="625.7" y2="275.5"/>
    <line x1="374.0" y1="413.5" x2="295.5" y2="328.4"/>
    <line x1="310.2" y1="156.3" x2="646.1" y2="404.0"/>
    <line x1="538.5" y1="402.9" x2="533.3" y2="371.6"/>
    <line x1="648.7" y1="396.9" x2="435.3" y2="483.2"/>
    <line x1="533.8" y1="518.2" x2="435.3" y2="483.2"/>
    <line x1="157.5" y1="159.8" x2="186.6" y2="241.0"/>
    <line x1="207.1" y1="233.6" x2="214.9" y2="115.9"/>
    <line x1="321.1" y1="200.7" x2="653.6" y2="317.2"/>
    <line x1="532.0" y1="491.0" x2="456.0" y2="463.8"/>
    <line x1="243.9" y1="134.8" x2="671.4" y2="227.8"/>
    <line x1="267.3" y1="64.0" x2="435.2" y2="492.5"/>
    <line x1="353.8" y1="450.6" x2="206.4" y2="269.9"/>
    <line x1="375.9" y1="175.1" x2="342.2" y2="314.1"/>
    <line x1="380.8" y1="424.3" x2="293.0" y2="225.1"/>
    <line x1="266.0" y1="203.3" x2="599.8" y2="250.8"/>
    <line x1="416.3" y1="416.5" x2="625.7" y2="277.8"/>
    <line x1="377.6" y1="146.3" x2="653.6" y2="317.2"/>
    <line x1="320.6" y1="91.3" x2="730.5" y2="306.3"/>
    <line x1="699.4" y1="425.6" x2="316.2" y2="416.6"/>
    <line x1="601.4" y1="274.8" x2="592.5" y2="340.8"/>
    <line x1="234.5" y1="275.5" x2="220.8" y2="288.2"/>
    <line x1="157.5" y1="159.8" x2="689.8" y2="431.0"/>
    <line x1="294.0" y1="245.5" x2="209.2" y2="135.3"/>
    <line x1="598.1" y1="215.2" x2="436.2" y2="471.7"/>
    <line x1="545.5" y1="337.7" x2="557.5" y2="267.2"/>
    <line x1="239.2" y1="253.7" x2="266.0" y2="203.3"/>
    <line x1="393.0" y1="389.8" x2="491.8" y2="409.3"/>
    <line x1="547.7" y1="262.6" x2="558.8" y2="165.5"/>
    <line x1="232.6" y1="156.2" x2="229.3" y2="225.7"/>
    <line x1="185.7" y1="283.0" x2="494.5" y2="502.5"/>
    <line x1="141.5" y1="252.6" x2="613.5" y2="222.8"/>
    <line x1="206.7" y1="288.9" x2="199.9" y2="229.2"/>
    <line x1="328.0" y1="294.1" x2="436.2" y2="471.7"/>
    <line x1="533.8" y1="518.2" x2="533.3" y2="371.6"/>
    <line x1="648.7" y1="396.9" x2="311.4" y2="385.2"/>
    <line x1="282.4" y1="179.6" x2="435.3" y2="483.2"/>
    <line x1="98.5" y1="180.5" x2="295.4" y2="302.9"/>
    <line x1="193.0" y1="321.7" x2="356.4" y2="126.4"/>
    <line x1="431.5" y1="526.7" x2="521.6" y2="348.3"/>
    <line x1="230.2" y1="357.1" x2="539.1" y2="496.6"/>
    <line x1="437.5" y1="330.2" x2="646.1" y2="404.0"/>
    <line x1="380.8" y1="424.3" x2="302.8" y2="171.0"/>
    <line x1="322.3" y1="198.4" x2="354.4" y2="233.2"/>
    <line x1="416.3" y1="416.5" x2="540.0" y2="251.3"/>
    <line x1="329.9" y1="390.7" x2="431.5" y2="526.7"/>
    <line x1="146.1" y1="153.7" x2="327.9" y2="142.4"/>
    <line x1="250.9" y1="236.2" x2="379.4" y2="153.8"/>
    <line x1="302.8" y1="171.0" x2="348.6" y2="202.3"/>
    <line x1="271.6" y1="189.4" x2="437.5" y2="330.2"/>
    <line x1="401.0" y1="179.6" x2="558.8" y2="165.5"/>
    <line x1="291.5" y1="355.3" x2="538.5" y2="402.9"/>
    <line x1="291.5" y1="355.3" x2="533.3" y2="371.6"/>
    <line x1="199.9" y1="229.2" x2="290.6" y2="191.7"/>
    <line x1="504.5" y1="212.3" x2="459.3" y2="131.6"/>
    <line x1="185.7" y1="283.0" x2="648.7" y2="396.9"/>
    <line x1="198.4" y1="293.9" x2="505.9" y2="245.6"/>
    <line x1="522.2" y1="436.1" x2="456.4" y2="459.2"/>
    <line x1="160.5" y1="117.4" x2="671.4" y2="227.8"/>
    <line x1="214.9" y1="115.9" x2="223.3" y2="301.8"/>
    <line x1="374.0" y1="413.5" x2="492.6" y2="459.0"/>
    <line x1="482.0" y1="244.4" x2="379.4" y2="446.0"/>
    <line x1="354.0" y1="267.0" x2="192.1" y2="249.4"/>
    <line x1="250.7" y1="181.3" x2="491.8" y2="409.3"/>
    <line x1="409.2" y1="207.4" x2="324.4" y2="122.1"/>
    <line x1="433.8" y1="393.9" x2="641.6" y2="328.4"/>
    <line x1="526.0" y1="165.0" x2="633.0" y2="387.2"/>
    <line x1="375.9" y1="175.1" x2="302.8" y2="389.6"/>
    <line x1="302.8" y1="245.0" x2="730.5" y2="306.3"/>
    <line x1="266.3" y1="192.2" x2="465.7" y2="157.4"/>
    <line x1="539.1" y1="496.6" x2="236.9" y2="268.8"/>
    <line x1="330.3" y1="273.4" x2="363.5" y2="423.6"/>
    <line x1="375.7" y1="409.7" x2="497.9" y2="74.4"/>
    <line x1="422.5" y1="173.6" x2="653.6" y2="317.2"/>
    <line x1="295.5" y1="328.4" x2="492.6" y2="459.0"/>
    <line x1="229.3" y1="225.7" x2="579.9" y2="259.9"/>
    <line x1="334.4" y1="187.3" x2="418.6" y2="172.0"/>
    <line x1="432.4" y1="110.0" x2="390.8" y2="257.3"/>
    <line x1="591.2" y1="261.2" x2="482.0" y2="244.4"/>
    <line x1="226.2" y1="200.5" x2="199.9" y2="229.2"/>
    <line x1="328.0" y1="294.1" x2="598.1" y2="215.2"/>
    <line x1="401.0" y1="179.6" x2="559.9" y2="436.6"/>
    <line x1="334.8" y1="107.1" x2="322.3" y2="198.4"/>
    <line x1="214.9" y1="115.9" x2="355.8" y2="533.4"/>
    <line x1="289.6" y1="328.5" x2="442.8" y2="161.2"/>
    <line x1="480.9" y1="224.7" x2="252.0" y2="215.2"/>
    <line x1="535.0" y1="340.9" x2="599.6" y2="232.4"/>
    <line x1="305.3" y1="359.2" x2="504.5" y2="212.3"/>
    <line x1="206.4" y1="269.9" x2="347.4" y2="455.4"/>
    <line x1="189.6" y1="277.0" x2="368.7" y2="267.5"/>
    <line x1="420.0" y1="369.2" x2="226.2" y2="200.5"/>
    <line x1="316.6" y1="129.3" x2="462.3" y2="199.5"/>
    <line x1="514.1" y1="455.7" x2="267.8" y2="250.5"/>
    <line x1="302.7" y1="52.8" x2="354.1" y2="226.8"/>
    <line x1="564.8" y1="250.2" x2="603.0" y2="267.5"/>
    <line x1="433.8" y1="393.9" x2="545.5" y2="337.7"/>
    <line x1="329.9" y1="390.7" x2="554.0" y2="240.6"/>
    <line x1="564.8" y1="250.2" x2="502.9" y2="469.7"/>
    <line x1="239.2" y1="253.7" x2="730.5" y2="306.3"/>
    <line x1="375.7" y1="409.7" x2="229.3" y2="225.7"/>
    <line x1="239.4" y1="283.0" x2="494.5" y2="502.5"/>
    <line x1="416.3" y1="416.5" x2="597.7" y2="226.2"/>
    <line x1="408.9" y1="307.0" x2="558.8" y2="165.5"/>
    <line x1="494.5" y1="502.5" x2="533.3" y2="371.6"/>
    <line x1="266.3" y1="192.2" x2="505.9" y2="245.6"/>
    <line x1="531.9" y1="366.2" x2="342.2" y2="314.1"/>
    <line x1="250.9" y1="236.2" x2="329.9" y2="390.7"/>
    <line x1="377.6" y1="146.3" x2="688.9" y2="338.1"/>
    <line x1="653.6" y1="317.2" x2="603.0" y2="267.5"/>
    <line x1="206.4" y1="269.9" x2="252.0" y2="215.2"/>
    <line x1="418.6" y1="172.0" x2="625.7" y2="277.8"/>
    <line x1="214.9" y1="262.7" x2="280.0" y2="218.1"/>
    <line x1="167.6" y1="382.5" x2="677.3" y2="252.5"/>
    <line x1="302.7" y1="52.8" x2="596.7" y2="353.4"/>
    <line x1="353.8" y1="450.6" x2="347.4" y2="455.4"/>
    <line x1="290.1" y1="146.6" x2="295.5" y2="328.4"/>
    <line x1="266.3" y1="192.2" x2="232.6" y2="156.2"/>
    <line x1="354.0" y1="267.0" x2="514.1" y2="455.7"/>
    <line x1="189.6" y1="277.0" x2="239.2" y2="253.7"/>
    <line x1="316.6" y1="129.3" x2="210.1" y2="225.9"/>
    <line x1="504.5" y1="212.3" x2="494.8" y2="150.2"/>
    <line x1="302.7" y1="52.8" x2="338.1" y2="209.1"/>
    <line x1="699.9" y1="278.4" x2="601.4" y2="274.8"/>
    <line x1="250.7" y1="181.3" x2="393.0" y2="389.8"/>
    <line x1="355.4" y1="280.7" x2="267.8" y2="250.5"/>
    <line x1="756.7" y1="403.6" x2="699.4" y2="425.6"/>
    <line x1="433.8" y1="393.9" x2="699.9" y2="278.4"/>
    <line x1="375.7" y1="409.7" x2="297.9" y2="40.0"/>
    <line x1="699.9" y1="278.4" x2="557.5" y2="267.2"/>
    <line x1="373.7" y1="420.3" x2="348.6" y2="202.3"/>
    <line x1="366.5" y1="415.1" x2="505.9" y2="245.6"/>
    <line x1="408.9" y1="307.0" x2="591.2" y2="261.2"/>
    <line x1="641.6" y1="328.4" x2="545.5" y2="337.7"/>
    <line x1="214.9" y1="115.9" x2="535.0" y2="340.9"/>
    <line x1="206.7" y1="288.9" x2="521.6" y2="348.3"/>
    <line x1="432.4" y1="110.0" x2="196.6" y2="144.2"/>
    <line x1="186.6" y1="241.0" x2="395.2" y2="160.9"/>
    <line x1="209.2" y1="135.3" x2="436.2" y2="471.7"/>
    <line x1="554.0" y1="240.6" x2="431.5" y2="526.7"/>
    <line x1="288.5" y1="187.2" x2="293.0" y2="225.1"/>
    <line x1="280.0" y1="218.1" x2="559.9" y2="436.6"/>
    <line x1="533.3" y1="371.6" x2="551.5" y2="394.9"/>
    <line x1="141.5" y1="252.6" x2="236.9" y2="268.8"/>
    <line x1="418.6" y1="172.0" x2="540.0" y2="251.3"/>
    <line x1="417.2" y1="348.9" x2="390.8" y2="257.3"/>
    <line x1="334.8" y1="107.1" x2="404.9" y2="94.9"/>
    <line x1="160.7" y1="301.9" x2="646.1" y2="404.0"/>
    <line x1="334.8" y1="107.1" x2="354.4" y2="233.2"/>
    <line x1="366.7" y1="414.4" x2="435.3" y2="483.2"/>
    <line x1="196.6" y1="144.2" x2="462.3" y2="199.5"/>
    <line x1="294.6" y1="359.1" x2="289.9" y2="226.5"/>
    <line x1="531.9" y1="366.2" x2="494.8" y2="150.2"/>
    <line x1="348.6" y1="202.3" x2="322.3" y2="198.4"/>
    <line x1="474.3" y1="413.0" x2="290.6" y2="191.7"/>
    <line x1="192.4" y1="114.4" x2="390.8" y2="257.3"/>
    <line x1="207.1" y1="233.6" x2="210.1" y2="225.9"/>
    <line x1="96.6" y1="302.4" x2="646.1" y2="404.0"/>
    <line x1="302.7" y1="52.8" x2="258.8" y2="208.9"/>
    <line x1="433.8" y1="393.9" x2="601.4" y2="274.8"/>
    <line x1="289.6" y1="328.5" x2="491.8" y2="409.3"/>
    <line x1="236.4" y1="244.6" x2="226.2" y2="200.5"/>
    <line x1="330.3" y1="273.4" x2="417.2" y2="348.9"/>
    <line x1="499.8" y1="329.4" x2="456.0" y2="463.8"/>
    <line x1="601.4" y1="274.8" x2="545.5" y2="337.7"/>
    <line x1="366.9" y1="270.6" x2="677.3" y2="252.5"/>
    <line x1="381.0" y1="257.6" x2="625.7" y2="277.8"/>
    <line x1="348.6" y1="192.7" x2="760.0" y2="158.9"/>
    <line x1="423.9" y1="164.1" x2="492.6" y2="459.0"/>
    <line x1="468.4" y1="387.6" x2="551.5" y2="394.9"/>
    <line x1="295.4" y1="302.9" x2="294.0" y2="245.5"/>
    <line x1="687.2" y1="238.2" x2="393.0" y2="389.8"/>
    <line x1="220.8" y1="288.2" x2="291.2" y2="210.7"/>
    <line x1="295.4" y1="302.9" x2="539.1" y2="496.6"/>
    <line x1="366.7" y1="414.4" x2="311.4" y2="385.2"/>
    <line x1="482.0" y1="244.4" x2="613.3" y2="309.2"/>
    <line x1="263.8" y1="241.8" x2="683.1" y2="261.4"/>
    <line x1="297.9" y1="40.0" x2="229.3" y2="225.7"/>
    <line x1="380.8" y1="424.3" x2="411.9" y2="414.1"/>
    <line x1="258.8" y1="208.9" x2="596.7" y2="353.4"/>
    <line x1="324.4" y1="122.1" x2="236.9" y2="268.8"/>
    <line x1="209.2" y1="135.3" x2="598.1" y2="215.2"/>
    <line x1="302.7" y1="52.8" x2="260.6" y2="238.6"/>
    <line x1="250.9" y1="236.2" x2="435.6" y2="292.3"/>
    <line x1="386.5" y1="120.2" x2="321.1" y2="200.7"/>
    <line x1="366.5" y1="415.1" x2="526.0" y2="165.0"/>
    <line x1="327.9" y1="142.4" x2="689.8" y2="431.0"/>
    <line x1="459.3" y1="131.6" x2="494.8" y2="150.2"/>
    <line x1="206.7" y1="288.9" x2="431.5" y2="526.7"/>
    <line x1="437.5" y1="330.2" x2="404.2" y2="411.5"/>
    <line x1="167.6" y1="382.5" x2="591.5" y2="260.5"/>
    <line x1="539.1" y1="496.6" x2="613.5" y2="222.8"/>
    <line x1="345.1" y1="210.0" x2="742.1" y2="190.1"/>
    <line x1="470.7" y1="263.0" x2="343.4" y2="483.6"/>
    <line x1="591.2" y1="261.2" x2="547.7" y2="262.6"/>
    <line x1="381.0" y1="257.6" x2="416.3" y2="416.5"/>
    <line x1="271.6" y1="189.4" x2="257.3" y2="218.3"/>
    <line x1="280.0" y1="218.1" x2="613.3" y2="309.2"/>
    <line x1="263.8" y1="241.8" x2="206.4" y2="269.9"/>
    <line x1="254.9" y1="342.1" x2="302.8" y2="245.0"/>
    <line x1="404.2" y1="411.5" x2="587.0" y2="378.3"/>
    <line x1="223.3" y1="301.8" x2="355.8" y2="533.4"/>
    <line x1="266.3" y1="192.2" x2="229.3" y2="225.7"/>
    <line x1="289.6" y1="328.5" x2="393.0" y2="389.8"/>
    <line x1="558.8" y1="165.5" x2="613.3" y2="309.2"/>
    <line x1="295.4" y1="302.9" x2="598.1" y2="215.2"/>
    <line x1="417.2" y1="348.9" x2="192.4" y2="114.4"/>
    <line x1="386.5" y1="120.2" x2="289.9" y2="226.5"/>
    <line x1="760.0" y1="158.9" x2="688.9" y2="338.1"/>
    <line x1="701.9" y1="209.3" x2="379.4" y2="446.0"/>
    <line x1="227.4" y1="241.2" x2="462.3" y2="199.5"/>
    <line x1="406.0" y1="440.7" x2="316.2" y2="416.6"/>
    <line x1="687.2" y1="238.2" x2="362.2" y2="392.3"/>
    <line x1="474.3" y1="413.0" x2="243.9" y2="134.8"/>
    <line x1="257.3" y1="218.3" x2="671.4" y2="227.8"/>
    <line x1="547.7" y1="262.6" x2="379.4" y2="446.0"/>
    <line x1="410.2" y1="251.0" x2="492.6" y2="459.0"/>
    <line x1="451.4" y1="410.9" x2="625.7" y2="277.8"/>
    <line x1="599.8" y1="250.8" x2="506.9" y2="277.8"/>
    <line x1="98.5" y1="180.5" x2="539.1" y2="496.6"/>
    <line x1="366.9" y1="270.6" x2="591.5" y2="260.5"/>
    <line x1="271.6" y1="189.4" x2="646.1" y2="404.0"/>
    <line x1="302.8" y1="389.6" x2="327.8" y2="117.8"/>
    <line x1="354.0" y1="267.0" x2="497.9" y2="74.4"/>
    <line x1="256.6" y1="309.1" x2="462.3" y2="199.5"/>
    <line x1="354.1" y1="226.8" x2="596.7" y2="353.4"/>
    <line x1="236.4" y1="244.6" x2="223.8" y2="241.7"/>
    <line x1="480.9" y1="224.7" x2="263.8" y2="241.8"/>
    <line x1="625.7" y1="275.5" x2="475.0" y2="402.4"/>
    <line x1="302.8" y1="171.0" x2="418.6" y2="172.0"/>
    <line x1="282.4" y1="179.6" x2="418.6" y2="172.0"/>
    <line x1="223.3" y1="301.8" x2="535.0" y2="340.9"/>
    <line x1="295.6" y1="120.1" x2="599.8" y2="250.8"/>
    <line x1="375.9" y1="175.1" x2="267.3" y2="64.0"/>
    <line x1="258.8" y1="208.9" x2="260.6" y2="238.6"/>
    <line x1="468.4" y1="387.6" x2="533.3" y2="371.6"/>
    <line x1="267.3" y1="64.0" x2="683.1" y2="261.4"/>
    <line x1="167.6" y1="382.5" x2="366.9" y2="270.6"/>
    <line x1="234.2" y1="233.6" x2="579.9" y2="259.9"/>
    <line x1="243.9" y1="134.8" x2="290.6" y2="191.7"/>
    <line x1="531.9" y1="366.2" x2="504.5" y2="212.3"/>
    <line x1="230.2" y1="357.1" x2="436.2" y2="471.7"/>
    <line x1="490.9" y1="377.7" x2="456.0" y2="463.8"/>
    <line x1="322.4" y1="313.1" x2="404.9" y2="94.9"/>
    <line x1="230.2" y1="357.1" x2="343.4" y2="483.6"/>
    <line x1="214.9" y1="262.7" x2="558.8" y2="165.5"/>
    <line x1="375.9" y1="175.1" x2="435.2" y2="492.5"/>
    <line x1="451.4" y1="410.9" x2="540.0" y2="251.3"/>
    <line x1="294.6" y1="359.1" x2="688.9" y2="338.1"/>
    <line x1="220.8" y1="288.2" x2="456.0" y2="463.8"/>
    <line x1="210.1" y1="225.9" x2="579.2" y2="177.6"/>
    <line x1="377.3" y1="422.1" x2="599.8" y2="250.8"/>
    <line x1="294.6" y1="359.1" x2="386.5" y2="120.2"/>
    <line x1="599.6" y1="232.4" x2="579.2" y2="177.6"/>
    <line x1="192.1" y1="249.4" x2="267.8" y2="250.5"/>
    <line x1="514.1" y1="455.7" x2="192.1" y2="249.4"/>
    <line x1="98.5" y1="180.5" x2="598.1" y2="215.2"/>
    <line x1="188.9" y1="329.9" x2="535.0" y2="340.9"/>
    <line x1="475.0" y1="402.4" x2="362.2" y2="392.3"/>
    <line x1="742.1" y1="190.1" x2="587.0" y2="378.3"/>
    <line x1="334.4" y1="187.3" x2="625.7" y2="277.8"/>
    <line x1="160.7" y1="301.9" x2="404.2" y2="411.5"/>
    <line x1="411.9" y1="414.1" x2="302.8" y2="171.0"/>
    <line x1="291.2" y1="210.7" x2="596.7" y2="353.4"/>
    <line x1="227.4" y1="241.2" x2="256.6" y2="309.1"/>
    <line x1="338.1" y1="209.1" x2="354.1" y2="226.8"/>
    <line x1="386.5" y1="120.2" x2="377.6" y2="146.3"/>
    <line x1="214.9" y1="225.5" x2="378.0" y2="137.0"/>
    <line x1="289.9" y1="226.5" x2="338.0" y2="152.3"/>
    <line x1="214.9" y1="225.5" x2="288.5" y2="187.2"/>
    <line x1="324.4" y1="122.1" x2="613.5" y2="222.8"/>
    <line x1="435.3" y1="483.2" x2="494.5" y2="502.5"/>
    <line x1="96.6" y1="302.4" x2="404.2" y2="411.5"/>
    <line x1="368.7" y1="267.5" x2="302.8" y2="245.0"/>
    <line x1="302.8" y1="171.0" x2="322.3" y2="198.4"/>
    <line x1="356.4" y1="126.4" x2="577.2" y2="236.8"/>
    <line x1="408.9" y1="307.0" x2="379.4" y2="446.0"/>
    <line x1="435.6" y1="292.3" x2="379.4" y2="153.8"/>
    <line x1="422.5" y1="173.6" x2="603.0" y2="267.5"/>
    <line x1="160.5" y1="117.4" x2="290.6" y2="191.7"/>
    <line x1="545.5" y1="337.7" x2="592.5" y2="340.8"/>
    <line x1="291.5" y1="355.3" x2="239.4" y2="283.0"/>
    <line x1="186.6" y1="241.0" x2="689.8" y2="431.0"/>
    <line x1="338.1" y1="209.1" x2="596.7" y2="353.4"/>
    <line x1="538.5" y1="402.9" x2="533.8" y2="518.2"/>
    <line x1="355.4" y1="280.7" x2="192.1" y2="249.4"/>
    <line x1="315.3" y1="325.0" x2="250.7" y2="181.3"/>
    <line x1="147.4" y1="116.8" x2="491.8" y2="409.3"/>
    <line x1="230.2" y1="357.1" x2="522.4" y2="524.4"/>
    <line x1="451.4" y1="410.9" x2="597.7" y2="226.2"/>
    <line x1="559.1" y1="246.1" x2="379.4" y2="446.0"/>
    <line x1="504.5" y1="212.3" x2="456.4" y2="459.2"/>
    <line x1="338.0" y1="152.3" x2="564.8" y2="250.2"/>
    <line x1="96.6" y1="302.4" x2="160.7" y2="301.9"/>
    <line x1="316.6" y1="129.3" x2="599.6" y2="232.4"/>
    <line x1="210.1" y1="225.9" x2="599.6" y2="232.4"/>
    <line x1="689.8" y1="431.0" x2="543.5" y2="224.9"/>
    <line x1="324.4" y1="122.1" x2="677.3" y2="252.5"/>
    <line x1="470.7" y1="263.0" x2="455.7" y2="141.9"/>
    <line x1="293.5" y1="299.0" x2="699.4" y2="425.6"/>
    <line x1="271.6" y1="189.4" x2="474.3" y2="413.0"/>
    <line x1="227.4" y1="241.2" x2="432.4" y2="110.0"/>
    <line x1="395.2" y1="398.8" x2="551.5" y2="394.9"/>
    <line x1="428.0" y1="222.8" x2="699.4" y2="425.6"/>
    <line x1="185.7" y1="283.0" x2="533.3" y2="371.6"/>
    <line x1="599.8" y1="250.8" x2="603.3" y2="242.6"/>
    <line x1="465.7" y1="157.4" x2="505.9" y2="245.6"/>
    <line x1="531.9" y1="366.2" x2="456.4" y2="459.2"/>
    <line x1="250.9" y1="236.2" x2="521.6" y2="348.3"/>
    <line x1="295.4" y1="302.9" x2="209.2" y2="135.3"/>
    <line x1="338.1" y1="209.1" x2="258.8" y2="208.9"/>
    <line x1="271.6" y1="189.4" x2="671.4" y2="227.8"/>
    <line x1="353.8" y1="450.6" x2="252.0" y2="215.2"/>
    <line x1="302.8" y1="389.6" x2="342.2" y2="314.1"/>
    <line x1="252.0" y1="215.2" x2="683.1" y2="261.4"/>
    <line x1="408.9" y1="307.0" x2="559.9" y2="436.6"/>
    <line x1="167.6" y1="382.5" x2="324.4" y2="122.1"/>
    <line x1="229.3" y1="225.7" x2="505.9" y2="245.6"/>
    <line x1="207.1" y1="233.6" x2="599.6" y2="232.4"/>
    <line x1="378.0" y1="137.0" x2="334.8" y2="107.1"/>
    <line x1="374.0" y1="413.5" x2="290.1" y2="146.6"/>
    <line x1="435.6" y1="292.3" x2="329.9" y2="390.7"/>
    <line x1="386.5" y1="120.2" x2="760.0" y2="158.9"/>
    <line x1="291.5" y1="355.3" x2="533.8" y2="518.2"/>
    <line x1="239.2" y1="253.7" x2="368.7" y2="267.5"/>
    <line x1="342.2" y1="314.1" x2="494.8" y2="150.2"/>
    <line x1="514.1" y1="455.7" x2="375.7" y2="409.7"/>
    <line x1="366.9" y1="270.6" x2="506.7" y2="375.6"/>
    <line x1="355.4" y1="280.7" x2="514.1" y2="455.7"/>
    <line x1="330.3" y1="273.4" x2="192.4" y2="114.4"/>
    <line x1="401.0" y1="179.6" x2="613.3" y2="309.2"/>
    <line x1="547.7" y1="262.6" x2="482.0" y2="244.4"/>
    <line x1="234.5" y1="275.5" x2="291.2" y2="210.7"/>
    <line x1="648.7" y1="396.9" x2="366.7" y2="414.4"/>
    <line x1="411.9" y1="414.1" x2="424.9" y2="402.9"/>
  </g>
  <g>
    <circle cx="234.5" cy="275.5" r="3" fill="#6c5ce7"/>
    <circle cx="167.6" cy="382.5" r="3" fill="#6c5ce7"/>
    <circle cx="266.3" cy="192.2" r="3" fill="#6c5ce7"/>
    <circle cx="189.6" cy="277.0" r="3" fill="#6c5ce7"/>
    <circle cx="291.5" cy="355.3" r="3" fill="#6c5ce7"/>
    <circle cx="227.4" cy="241.2" r="3" fill="#6c5ce7"/>
    <circle cx="294.6" cy="359.1" r="3" fill="#6c5ce7"/>
    <circle cx="96.6" cy="302.4" r="3" fill="#6c5ce7"/>
    <circle cx="239.4" cy="283.0" r="3" fill="#6c5ce7"/>
    <circle cx="250.9" cy="236.2" r="3" fill="#6c5ce7"/>
    <circle cx="207.1" cy="233.6" r="3" fill="#6c5ce7"/>
    <circle cx="206.7" cy="288.9" r="3" fill="#6c5ce7"/>
    <circle cx="366.9" cy="270.6" r="3" fill="#6c5ce7"/>
    <circle cx="256.6" cy="309.1" r="3" fill="#6c5ce7"/>
    <circle cx="295.6" cy="120.1" r="3" fill="#6c5ce7"/>
    <circle cx="98.5" cy="180.5" r="3" fill="#6c5ce7"/>
    <circle cx="185.7" cy="283.0" r="3" fill="#6c5ce7"/>
    <circle cx="302.7" cy="52.8" r="3" fill="#6c5ce7"/>
    <circle cx="338.1" cy="209.1" r="3" fill="#6c5ce7"/>
    <circle cx="40.0" cy="124.2" r="3" fill="#6c5ce7"/>
    <circle cx="381.0" cy="257.6" r="3" fill="#6c5ce7"/>
    <circle cx="220.8" cy="288.2" r="3" fill="#6c5ce7"/>
    <circle cx="293.5" cy="299.0" r="3" fill="#6c5ce7"/>
    <circle cx="295.4" cy="302.9" r="3" fill="#6c5ce7"/>
    <circle cx="254.9" cy="342.1" r="3" fill="#6c5ce7"/>
    <circle cx="239.2" cy="253.7" r="3" fill="#6c5ce7"/>
    <circle cx="236.4" cy="244.6" r="3" fill="#6c5ce7"/>
    <circle cx="214.9" cy="262.7" r="3" fill="#6c5ce7"/>
    <circle cx="141.5" cy="252.6" r="3" fill="#6c5ce7"/>
    <circle cx="271.6" cy="189.4" r="3" fill="#6c5ce7"/>
    <circle cx="368.7" cy="267.5" r="3" fill="#6c5ce7"/>
    <circle cx="258.8" cy="208.9" r="3" fill="#6c5ce7"/>
    <circle cx="354.1" cy="226.8" r="3" fill="#6c5ce7"/>
    <circle cx="302.8" cy="245.0" r="3" fill="#6c5ce7"/>
    <circle cx="347.5" cy="296.7" r="3" fill="#6c5ce7"/>
    <circle cx="260.6" cy="238.6" r="3" fill="#6c5ce7"/>
    <circle cx="230.2" cy="357.1" r="3" fill="#6c5ce7"/>
    <circle cx="157.5" cy="159.8" r="3" fill="#6c5ce7"/>
    <circle cx="186.6" cy="241.0" r="3" fill="#6c5ce7"/>
    <circle cx="315.3" cy="325.0" r="3" fill="#6c5ce7"/>
    <circle cx="435.6" cy="292.3" r="3" fill="#6c5ce7"/>
    <circle cx="266.0" cy="203.3" r="3" fill="#6c5ce7"/>
    <circle cx="232.6" cy="156.2" r="3" fill="#6c5ce7"/>
    <circle cx="354.0" cy="267.0" r="3" fill="#6c5ce7"/>
    <circle cx="355.4" cy="280.7" r="3" fill="#6c5ce7"/>
    <circle cx="160.7" cy="301.9" r="3" fill="#6c5ce7"/>
    <circle cx="294.0" cy="245.5" r="3" fill="#6c5ce7"/>
    <circle cx="375.9" cy="175.1" r="3" fill="#6c5ce7"/>
    <circle cx="289.6" cy="328.5" r="3" fill="#fd79a8"/>
    <circle cx="374.0" cy="413.5" r="3" fill="#fd79a8"/>
    <circle cx="330.3" cy="273.4" r="3" fill="#fd79a8"/>
    <circle cx="420.0" cy="369.2" r="3" fill="#fd79a8"/>
    <circle cx="514.1" cy="455.7" r="3" fill="#fd79a8"/>
    <circle cx="353.8" cy="450.6" r="3" fill="#fd79a8"/>
    <circle cx="416.3" cy="416.5" r="3" fill="#fd79a8"/>
    <circle cx="417.2" cy="348.9" r="3" fill="#fd79a8"/>
    <circle cx="375.7" cy="409.7" r="3" fill="#fd79a8"/>
    <circle cx="522.2" cy="436.1" r="3" fill="#fd79a8"/>
    <circle cx="531.9" cy="366.2" r="3" fill="#fd79a8"/>
    <circle cx="302.8" cy="389.6" r="3" fill="#fd79a8"/>
    <circle cx="474.3" cy="413.0" r="3" fill="#fd79a8"/>
    <circle cx="437.5" cy="330.2" r="3" fill="#fd79a8"/>
    <circle cx="433.8" cy="393.9" r="3" fill="#fd79a8"/>
    <circle cx="451.4" cy="410.9" r="3" fill="#fd79a8"/>
    <circle cx="539.1" cy="496.6" r="3" fill="#fd79a8"/>
    <circle cx="380.8" cy="424.3" r="3" fill="#fd79a8"/>
    <circle cx="411.9" cy="414.1" r="3" fill="#fd79a8"/>
    <circle cx="424.9" cy="402.9" r="3" fill="#fd79a8"/>
    <circle cx="404.2" cy="411.5" r="3" fill="#fd79a8"/>
    <circle cx="532.0" cy="491.0" r="3" fill="#fd79a8"/>
    <circle cx="490.9" cy="377.7" r="3" fill="#fd79a8"/>
    <circle cx="480.9" cy="224.7" r="3" fill="#fd79a8"/>
    <circle cx="377.3" cy="422.1" r="3" fill="#fd79a8"/>
    <circle cx="329.9" cy="390.7" r="3" fill="#fd79a8"/>
    <circle cx="256.7" cy="392.3" r="3" fill="#fd79a8"/>
    <circle cx="499.8" cy="329.4" r="3" fill="#fd79a8"/>
    <circle cx="373.7" cy="420.3" r="3" fill="#fd79a8"/>
    <circle cx="234.2" cy="233.6" r="3" fill="#6c5ce7"/>
    <circle cx="342.2" cy="314.1" r="3" fill="#6c5ce7"/>
    <circle cx="226.2" cy="200.5" r="3" fill="#6c5ce7"/>
    <circle cx="192.1" cy="249.4" r="3" fill="#6c5ce7"/>
    <circle cx="263.8" cy="241.8" r="3" fill="#6c5ce7"/>
    <circle cx="305.3" cy="359.2" r="3" fill="#6c5ce7"/>
    <circle cx="379.4" cy="153.8" r="3" fill="#e17055"/>
    <circle cx="214.9" cy="115.9" r="3" fill="#e17055"/>
    <circle cx="321.6" cy="70.0" r="3" fill="#e17055"/>
    <circle cx="386.5" cy="120.2" r="3" fill="#e17055"/>
    <circle cx="377.6" cy="146.3" r="3" fill="#e17055"/>
    <circle cx="193.0" cy="321.7" r="3" fill="#e17055"/>
    <circle cx="214.9" cy="225.5" r="3" fill="#e17055"/>
    <circle cx="428.0" cy="222.8" r="3" fill="#e17055"/>
    <circle cx="223.8" cy="241.7" r="3" fill="#e17055"/>
    <circle cx="378.0" cy="137.0" r="3" fill="#e17055"/>
    <circle cx="356.4" cy="126.4" r="3" fill="#e17055"/>
    <circle cx="228.8" cy="118.2" r="3" fill="#e17055"/>
    <circle cx="409.2" cy="207.4" r="3" fill="#e17055"/>
    <circle cx="310.2" cy="156.3" r="3" fill="#e17055"/>
    <circle cx="401.0" cy="179.6" r="3" fill="#e17055"/>
    <circle cx="327.8" cy="117.8" r="3" fill="#e17055"/>
    <circle cx="280.0" cy="218.1" r="3" fill="#e17055"/>
    <circle cx="302.8" cy="171.0" r="3" fill="#e17055"/>
    <circle cx="288.5" cy="187.2" r="3" fill="#e17055"/>
    <circle cx="334.8" cy="107.1" r="3" fill="#e17055"/>
    <circle cx="348.6" cy="202.3" r="3" fill="#e17055"/>
    <circle cx="395.2" cy="160.9" r="3" fill="#e17055"/>
    <circle cx="322.4" cy="313.1" r="3" fill="#e17055"/>
    <circle cx="404.9" cy="94.9" r="3" fill="#e17055"/>
    <circle cx="322.3" cy="198.4" r="3" fill="#e17055"/>
    <circle cx="408.9" cy="307.0" r="3" fill="#e17055"/>
    <circle cx="223.3" cy="301.8" r="3" fill="#e17055"/>
    <circle cx="273.8" cy="242.4" r="3" fill="#e17055"/>
    <circle cx="282.4" cy="179.6" r="3" fill="#e17055"/>
    <circle cx="243.9" cy="134.8" r="3" fill="#e17055"/>
    <circle cx="334.4" cy="187.3" r="3" fill="#e17055"/>
    <circle cx="293.0" cy="225.1" r="3" fill="#e17055"/>
    <circle cx="354.4" cy="233.2" r="3" fill="#e17055"/>
    <circle cx="297.9" cy="40.0" r="3" fill="#e17055"/>
    <circle cx="320.6" cy="91.3" r="3" fill="#e17055"/>
    <circle cx="348.6" cy="192.7" r="3" fill="#e17055"/>
    <circle cx="412.6" cy="227.0" r="3" fill="#e17055"/>
    <circle cx="432.4" cy="110.0" r="3" fill="#e17055"/>
    <circle cx="257.3" cy="218.3" r="3" fill="#e17055"/>
    <circle cx="291.2" cy="210.7" r="3" fill="#e17055"/>
    <circle cx="192.4" cy="114.4" r="3" fill="#e17055"/>
    <circle cx="316.6" cy="129.3" r="3" fill="#e17055"/>
    <circle cx="321.1" cy="200.7" r="3" fill="#e17055"/>
    <circle cx="418.6" cy="172.0" r="3" fill="#e17055"/>
    <circle cx="324.4" cy="122.1" r="3" fill="#e17055"/>
    <circle cx="422.5" cy="173.6" r="3" fill="#e17055"/>
    <circle cx="146.1" cy="153.7" r="3" fill="#e17055"/>
    <circle cx="327.9" cy="142.4" r="3" fill="#e17055"/>
    <circle cx="290.1" cy="146.6" r="3" fill="#e17055"/>
    <circle cx="250.7" cy="181.3" r="3" fill="#e17055"/>
    <circle cx="199.9" cy="229.2" r="3" fill="#e17055"/>
    <circle cx="160.5" cy="117.4" r="3" fill="#e17055"/>
    <circle cx="210.1" cy="225.9" r="3" fill="#e17055"/>
    <circle cx="290.6" cy="191.7" r="3" fill="#e17055"/>
    <circle cx="209.2" cy="135.3" r="3" fill="#e17055"/>
    <circle cx="289.9" cy="226.5" r="3" fill="#e17055"/>
    <circle cx="229.3" cy="225.7" r="3" fill="#e17055"/>
    <circle cx="206.4" cy="269.9" r="3" fill="#e17055"/>
    <circle cx="267.3" cy="64.0" r="3" fill="#e17055"/>
    <circle cx="267.8" cy="250.5" r="3" fill="#e17055"/>
    <circle cx="338.0" cy="152.3" r="3" fill="#e17055"/>
    <circle cx="497.9" cy="74.4" r="3" fill="#e17055"/>
    <circle cx="442.8" cy="161.2" r="3" fill="#e17055"/>
    <circle cx="196.6" cy="144.2" r="3" fill="#e17055"/>
    <circle cx="252.0" cy="215.2" r="3" fill="#e17055"/>
    <circle cx="236.9" cy="268.8" r="3" fill="#e17055"/>
    <circle cx="462.3" cy="199.5" r="3" fill="#e17055"/>
    <circle cx="147.4" cy="116.8" r="3" fill="#6c5ce7"/>
    <circle cx="188.9" cy="329.9" r="3" fill="#6c5ce7"/>
    <circle cx="251.5" cy="352.0" r="3" fill="#6c5ce7"/>
    <circle cx="328.0" cy="294.1" r="3" fill="#6c5ce7"/>
    <circle cx="198.4" cy="293.9" r="3" fill="#6c5ce7"/>
    <circle cx="465.7" cy="157.4" r="3" fill="#6c5ce7"/>
    <circle cx="295.5" cy="328.4" r="3" fill="#6c5ce7"/>
    <circle cx="366.5" cy="415.1" r="3" fill="#6c5ce7"/>
    <circle cx="756.7" cy="403.6" r="3" fill="#f39c12"/>
    <circle cx="689.8" cy="431.0" r="3" fill="#f39c12"/>
    <circle cx="653.6" cy="317.2" r="3" fill="#f39c12"/>
    <circle cx="730.5" cy="306.3" r="3" fill="#f39c12"/>
    <circle cx="596.7" cy="353.4" r="3" fill="#f39c12"/>
    <circle cx="683.1" cy="261.4" r="3" fill="#f39c12"/>
    <circle cx="699.4" cy="425.6" r="3" fill="#f39c12"/>
    <circle cx="504.5" cy="212.3" r="3" fill="#00b894"/>
    <circle cx="591.5" cy="260.5" r="3" fill="#00b894"/>
    <circle cx="423.9" cy="164.1" r="3" fill="#00b894"/>
    <circle cx="459.3" cy="131.6" r="3" fill="#00b894"/>
    <circle cx="579.9" cy="259.9" r="3" fill="#00b894"/>
    <circle cx="543.5" cy="224.9" r="3" fill="#00b894"/>
    <circle cx="667.3" cy="214.5" r="3" fill="#00b894"/>
    <circle cx="591.2" cy="261.2" r="3" fill="#00b894"/>
    <circle cx="547.7" cy="262.6" r="3" fill="#00b894"/>
    <circle cx="390.8" cy="257.3" r="3" fill="#00b894"/>
    <circle cx="482.0" cy="244.4" r="3" fill="#00b894"/>
    <circle cx="526.0" cy="165.0" r="3" fill="#00b894"/>
    <circle cx="505.9" cy="245.6" r="3" fill="#00b894"/>
    <circle cx="470.7" cy="263.0" r="3" fill="#00b894"/>
    <circle cx="455.1" cy="165.4" r="3" fill="#00b894"/>
    <circle cx="598.1" cy="215.2" r="3" fill="#00b894"/>
    <circle cx="410.2" cy="251.0" r="3" fill="#00b894"/>
    <circle cx="345.1" cy="210.0" r="3" fill="#00b894"/>
    <circle cx="455.7" cy="141.9" r="3" fill="#00b894"/>
    <circle cx="440.7" cy="312.9" r="3" fill="#00b894"/>
    <circle cx="494.8" cy="150.2" r="3" fill="#00b894"/>
    <circle cx="558.8" cy="165.5" r="3" fill="#0984e3"/>
    <circle cx="699.9" cy="278.4" r="3" fill="#0984e3"/>
    <circle cx="641.6" cy="328.4" r="3" fill="#0984e3"/>
    <circle cx="760.0" cy="158.9" r="3" fill="#0984e3"/>
    <circle cx="559.9" cy="436.6" r="3" fill="#0984e3"/>
    <circle cx="601.4" cy="274.8" r="3" fill="#0984e3"/>
    <circle cx="545.5" cy="337.7" r="3" fill="#0984e3"/>
    <circle cx="599.8" cy="250.8" r="3" fill="#0984e3"/>
    <circle cx="603.3" cy="242.6" r="3" fill="#0984e3"/>
    <circle cx="559.1" cy="246.1" r="3" fill="#0984e3"/>
    <circle cx="742.1" cy="190.1" r="3" fill="#0984e3"/>
    <circle cx="589.1" cy="415.1" r="3" fill="#0984e3"/>
    <circle cx="564.8" cy="250.2" r="3" fill="#0984e3"/>
    <circle cx="677.3" cy="252.5" r="3" fill="#0984e3"/>
    <circle cx="701.9" cy="209.3" r="3" fill="#0984e3"/>
    <circle cx="554.0" cy="240.6" r="3" fill="#0984e3"/>
    <circle cx="535.0" cy="340.9" r="3" fill="#0984e3"/>
    <circle cx="599.6" cy="232.4" r="3" fill="#0984e3"/>
    <circle cx="613.5" cy="222.8" r="3" fill="#0984e3"/>
    <circle cx="603.0" cy="267.5" r="3" fill="#0984e3"/>
    <circle cx="597.7" cy="226.2" r="3" fill="#0984e3"/>
    <circle cx="613.3" cy="309.2" r="3" fill="#0984e3"/>
    <circle cx="592.5" cy="340.8" r="3" fill="#0984e3"/>
    <circle cx="557.5" cy="267.2" r="3" fill="#0984e3"/>
    <circle cx="633.0" cy="387.2" r="3" fill="#0984e3"/>
    <circle cx="687.2" cy="238.2" r="3" fill="#0984e3"/>
    <circle cx="625.7" cy="277.8" r="3" fill="#0984e3"/>
    <circle cx="579.2" cy="177.6" r="3" fill="#0984e3"/>
    <circle cx="506.9" cy="277.8" r="3" fill="#0984e3"/>
    <circle cx="671.5" cy="336.9" r="3" fill="#0984e3"/>
    <circle cx="540.0" cy="251.3" r="3" fill="#0984e3"/>
    <circle cx="671.4" cy="227.8" r="3" fill="#0984e3"/>
    <circle cx="625.7" cy="275.5" r="3" fill="#0984e3"/>
    <circle cx="587.0" cy="378.3" r="3" fill="#0984e3"/>
    <circle cx="577.2" cy="236.8" r="3" fill="#0984e3"/>
    <circle cx="688.9" cy="338.1" r="3" fill="#0984e3"/>
    <circle cx="406.0" cy="440.7" r="3" fill="#9b59b6"/>
    <circle cx="502.9" cy="469.7" r="3" fill="#9b59b6"/>
    <circle cx="586.0" cy="560.0" r="3" fill="#9b59b6"/>
    <circle cx="648.7" cy="396.9" r="3" fill="#9b59b6"/>
    <circle cx="436.2" cy="471.7" r="3" fill="#9b59b6"/>
    <circle cx="379.4" cy="446.0" r="3" fill="#9b59b6"/>
    <circle cx="456.0" cy="463.8" r="3" fill="#9b59b6"/>
    <circle cx="431.5" cy="526.7" r="3" fill="#9b59b6"/>
    <circle cx="521.6" cy="348.3" r="3" fill="#9b59b6"/>
    <circle cx="366.7" cy="414.4" r="3" fill="#9b59b6"/>
    <circle cx="395.2" cy="398.8" r="3" fill="#9b59b6"/>
    <circle cx="538.5" cy="402.9" r="3" fill="#9b59b6"/>
    <circle cx="468.4" cy="387.6" r="3" fill="#9b59b6"/>
    <circle cx="456.4" cy="459.2" r="3" fill="#9b59b6"/>
    <circle cx="533.8" cy="518.2" r="3" fill="#9b59b6"/>
    <circle cx="646.1" cy="404.0" r="3" fill="#9b59b6"/>
    <circle cx="435.3" cy="483.2" r="3" fill="#9b59b6"/>
    <circle cx="494.5" cy="502.5" r="3" fill="#9b59b6"/>
    <circle cx="492.6" cy="459.0" r="3" fill="#9b59b6"/>
    <circle cx="429.0" cy="367.8" r="3" fill="#9b59b6"/>
    <circle cx="533.3" cy="371.6" r="3" fill="#9b59b6"/>
    <circle cx="522.4" cy="524.4" r="3" fill="#9b59b6"/>
    <circle cx="343.4" cy="483.6" r="3" fill="#9b59b6"/>
    <circle cx="316.2" cy="416.6" r="3" fill="#9b59b6"/>
    <circle cx="347.4" cy="455.4" r="3" fill="#9b59b6"/>
    <circle cx="475.9" cy="401.4" r="3" fill="#9b59b6"/>
    <circle cx="551.5" cy="394.9" r="3" fill="#9b59b6"/>
    <circle cx="473.9" cy="442.2" r="3" fill="#9b59b6"/>
    <circle cx="363.5" cy="423.6" r="3" fill="#9b59b6"/>
    <circle cx="311.4" cy="385.2" r="3" fill="#9b59b6"/>
    <circle cx="475.0" cy="402.4" r="3" fill="#9b59b6"/>
    <circle cx="435.2" cy="492.5" r="3" fill="#9b59b6"/>
    <circle cx="362.2" cy="392.3" r="3" fill="#9b59b6"/>
    <circle cx="393.0" cy="389.8" r="3" fill="#9b59b6"/>
    <circle cx="491.8" cy="409.3" r="3" fill="#9b59b6"/>
    <circle cx="355.8" cy="533.4" r="3" fill="#9b59b6"/>
    <circle cx="506.7" cy="375.6" r="3" fill="#9b59b6"/>
  </g>
  <text x="400.0" y="24" text-anchor="middle" fill="#e6eef7" font-family="system-ui" font-size="14">
    2D Proof Map — 259 declarations
  </text>
</svg>