<?xml version="1.0" encoding="UTF-8"?>
<svg xmlns="http://www.w3.org/2000/svg" viewBox="0 0 600 400" width="600" height="400">
  <defs>
    <linearGradient id="bg2d" x1="0%" y1="0%" x2="100%" y2="100%">
      <stop offset="0%" style="stop-color:#0b0f14"/>
      <stop offset="100%" style="stop-color:#16213e"/>
    </linearGradient>
  </defs>
  <rect width="600" height="400" fill="url(#bg2d)"/>
  <g class="edges" stroke="#cfd8dc" stroke-opacity="0.4" stroke-width="0.5">
    <line x1="182.1" y1="366.9" x2="180.6" y2="366.6"/>
    <line x1="347.4" y1="143.7" x2="347.8" y2="141.8"/>
    <line x1="347.5" y1="142.8" x2="347.1" y2="141.1"/>
    <line x1="307.0" y1="65.5" x2="308.3" y2="64.2"/>
    <line x1="471.2" y1="114.5" x2="468.4" y2="117.4"/>
    <line x1="350.6" y1="144.8" x2="349.6" y2="145.9"/>
    <line x1="565.2" y1="116.7" x2="564.8" y2="115.2"/>
    <line x1="277.9" y1="271.0" x2="279.0" y2="271.8"/>
    <line x1="32.9" y1="30.9" x2="33.5" y2="30.5"/>
    <line x1="291.6" y1="290.5" x2="291.6" y2="290.5"/>
    <line x1="516.9" y1="338.6" x2="520.1" y2="339.2"/>
    <line x1="294.0" y1="294.5" x2="294.0" y2="293.2"/>
    <line x1="516.8" y1="338.4" x2="515.6" y2="338.0"/>
    <line x1="278.2" y1="271.3" x2="280.7" y2="272.9"/>
    <line x1="519.7" y1="201.7" x2="519.1" y2="202.1"/>
    <line x1="520.7" y1="200.8" x2="522.3" y2="199.7"/>
    <line x1="31.2" y1="32.0" x2="31.1" y2="32.1"/>
    <line x1="288.5" y1="286.6" x2="286.3" y2="283.9"/>
    <line x1="300.6" y1="63.3" x2="300.6" y2="64.2"/>
    <line x1="31.9" y1="31.6" x2="31.2" y2="32.0"/>
    <line x1="34.1" y1="30.1" x2="34.2" y2="30.0"/>
    <line x1="294.0" y1="294.5" x2="294.9" y2="294.5"/>
    <line x1="518.1" y1="336.3" x2="519.0" y2="336.7"/>
    <line x1="308.0" y1="67.5" x2="307.0" y2="65.5"/>
    <line x1="567.8" y1="113.8" x2="567.6" y2="113.9"/>
    <line x1="564.2" y1="118.4" x2="567.0" y2="117.0"/>
    <line x1="567.5" y1="114.0" x2="568.1" y2="112.9"/>
    <line x1="182.1" y1="366.9" x2="183.2" y2="366.6"/>
    <line x1="179.7" y1="365.0" x2="179.2" y2="365.1"/>
    <line x1="349.6" y1="140.0" x2="350.8" y2="140.2"/>
    <line x1="520.1" y1="201.1" x2="520.1" y2="201.3"/>
    <line x1="294.7" y1="292.7" x2="292.7" y2="291.9"/>
    <line x1="177.3" y1="364.4" x2="176.1" y2="366.6"/>
    <line x1="350.8" y1="140.2" x2="352.5" y2="141.1"/>
    <line x1="302.5" y1="63.9" x2="300.6" y2="63.3"/>
    <line x1="516.9" y1="338.6" x2="516.8" y2="338.4"/>
    <line x1="518.1" y1="336.9" x2="518.3" y2="338.5"/>
    <line x1="300.2" y1="67.3" x2="302.2" y2="65.3"/>
    <line x1="278.0" y1="270.8" x2="278.0" y2="271.1"/>
    <line x1="516.8" y1="338.4" x2="520.1" y2="339.2"/>
    <line x1="518.1" y1="336.9" x2="520.1" y2="339.2"/>
    <line x1="304.2" y1="67.6" x2="307.0" y2="67.7"/>
    <line x1="181.9" y1="363.9" x2="180.9" y2="362.0"/>
    <line x1="300.6" y1="63.3" x2="302.8" y2="62.8"/>
    <line x1="344.9" y1="142.7" x2="347.3" y2="144.1"/>
    <line x1="286.5" y1="284.7" x2="285.8" y2="284.3"/>
    <line x1="565.6" y1="116.8" x2="564.2" y2="118.4"/>
    <line x1="31.9" y1="31.6" x2="32.1" y2="31.4"/>
    <line x1="569.0" y1="113.5" x2="567.3" y2="108.5"/>
    <line x1="180.9" y1="366.8" x2="179.7" y2="366.0"/>
    <line x1="301.9" y1="66.4" x2="304.1" y2="66.3"/>
    <line x1="294.0" y1="294.5" x2="295.7" y2="295.6"/>
    <line x1="350.8" y1="145.6" x2="349.5" y2="146.1"/>
    <line x1="521.5" y1="202.2" x2="523.0" y2="201.6"/>
    <line x1="285.8" y1="284.3" x2="285.0" y2="284.2"/>
    <line x1="567.5" y1="114.0" x2="567.6" y2="113.9"/>
    <line x1="349.6" y1="140.0" x2="351.7" y2="139.8"/>
    <line x1="347.4" y1="143.7" x2="347.3" y2="144.1"/>
    <line x1="300.6" y1="64.2" x2="302.6" y2="63.5"/>
    <line x1="307.0" y1="65.5" x2="308.9" y2="65.1"/>
    <line x1="471.2" y1="114.5" x2="470.0" y2="113.7"/>
    <line x1="277.9" y1="271.0" x2="276.7" y2="271.4"/>
    <line x1="291.6" y1="290.5" x2="290.5" y2="290.8"/>
    <line x1="518.1" y1="336.9" x2="517.3" y2="336.7"/>
    <line x1="302.5" y1="63.9" x2="302.6" y2="63.5"/>
    <line x1="561.1" y1="116.1" x2="562.7" y2="117.3"/>
    <line x1="278.2" y1="271.3" x2="279.0" y2="271.8"/>
    <line x1="520.7" y1="200.8" x2="520.1" y2="201.1"/>
    <line x1="304.1" y1="66.3" x2="303.8" y2="67.6"/>
    <line x1="520.7" y1="200.8" x2="518.8" y2="199.6"/>
    <line x1="288.5" y1="286.6" x2="286.2" y2="284.7"/>
    <line x1="34.1" y1="30.1" x2="33.5" y2="30.5"/>
    <line x1="293.5" y1="294.7" x2="294.0" y2="293.2"/>
    <line x1="178.8" y1="366.6" x2="179.7" y2="366.0"/>
    <line x1="470.3" y1="114.7" x2="470.9" y2="114.4"/>
    <line x1="179.1" y1="366.9" x2="179.1" y2="368.5"/>
    <line x1="518.3" y1="338.5" x2="518.9" y2="338.2"/>
    <line x1="515.0" y1="337.1" x2="516.5" y2="336.6"/>
    <line x1="342.1" y1="142.6" x2="343.7" y2="143.8"/>
    <line x1="564.8" y1="115.2" x2="567.0" y2="117.0"/>
    <line x1="520.1" y1="201.3" x2="522.0" y2="201.5"/>
    <line x1="185.7" y1="366.1" x2="185.8" y2="365.5"/>
    <line x1="302.5" y1="63.9" x2="304.3" y2="64.2"/>
    <line x1="563.6" y1="114.5" x2="561.1" y2="116.1"/>
    <line x1="286.3" y1="283.9" x2="285.8" y2="284.3"/>
    <line x1="344.9" y1="142.7" x2="347.4" y2="143.7"/>
    <line x1="304.1" y1="66.3" x2="303.8" y2="66.4"/>
    <line x1="305.9" y1="64.5" x2="308.3" y2="64.2"/>
    <line x1="470.9" y1="114.4" x2="471.2" y2="114.5"/>
    <line x1="569.0" y1="113.5" x2="566.6" y2="109.5"/>
    <line x1="474.8" y1="110.8" x2="475.6" y2="111.1"/>
    <line x1="514.8" y1="337.6" x2="515.6" y2="338.0"/>
    <line x1="308.0" y1="67.5" x2="307.0" y2="67.7"/>
    <line x1="294.9" y1="295.0" x2="296.0" y2="295.5"/>
    <line x1="293.9" y1="293.1" x2="291.9" y2="292.9"/>
    <line x1="349.6" y1="140.0" x2="352.0" y2="140.0"/>
    <line x1="475.6" y1="111.1" x2="475.0" y2="110.5"/>
    <line x1="515.9" y1="335.8" x2="514.4" y2="335.7"/>
    <line x1="33.5" y1="30.5" x2="32.1" y2="31.4"/>
    <line x1="567.0" y1="109.0" x2="567.3" y2="108.5"/>
    <line x1="567.0" y1="109.0" x2="565.3" y2="113.5"/>
    <line x1="567.0" y1="117.0" x2="567.4" y2="116.9"/>
    <line x1="277.9" y1="271.0" x2="277.9" y2="271.2"/>
    <line x1="293.5" y1="294.7" x2="295.7" y2="295.6"/>
    <line x1="307.0" y1="66.3" x2="307.0" y2="65.5"/>
    <line x1="305.9" y1="64.1" x2="307.0" y2="65.5"/>
    <line x1="302.5" y1="63.9" x2="300.6" y2="64.1"/>
    <line x1="518.1" y1="336.9" x2="518.1" y2="336.3"/>
    <line x1="183.2" y1="364.4" x2="186.2" y2="362.9"/>
    <line x1="561.1" y1="116.1" x2="561.9" y2="117.7"/>
    <line x1="290.5" y1="290.8" x2="291.6" y2="290.5"/>
    <line x1="305.9" y1="64.5" x2="305.7" y2="62.7"/>
    <line x1="520.1" y1="335.7" x2="520.1" y2="334.8"/>
    <line x1="279.0" y1="271.8" x2="280.7" y2="272.9"/>
    <line x1="184.1" y1="368.2" x2="185.3" y2="368.5"/>
    <line x1="178.8" y1="365.2" x2="176.1" y2="366.6"/>
    <line x1="288.3" y1="287.5" x2="290.7" y2="290.6"/>
    <line x1="300.6" y1="64.1" x2="300.6" y2="64.2"/>
    <line x1="470.3" y1="114.7" x2="470.3" y2="114.9"/>
    <line x1="300.6" y1="64.1" x2="302.2" y2="65.3"/>
    <line x1="301.9" y1="66.4" x2="302.2" y2="65.3"/>
    <line x1="344.1" y1="143.0" x2="341.3" y2="142.5"/>
    <line x1="181.1" y1="364.8" x2="183.2" y2="364.4"/>
    <line x1="347.1" y1="141.1" x2="349.2" y2="141.2"/>
    <line x1="352.2" y1="141.3" x2="349.2" y2="141.2"/>
    <line x1="518.3" y1="338.5" x2="516.9" y2="338.6"/>
    <line x1="570.0" y1="115.5" x2="569.0" y2="113.5"/>
    <line x1="564.8" y1="115.2" x2="563.6" y2="114.5"/>
    <line x1="290.7" y1="290.6" x2="291.5" y2="290.8"/>
    <line x1="475.0" y1="110.5" x2="472.2" y2="112.8"/>
    <line x1="31.1" y1="32.1" x2="30.7" y2="32.4"/>
    <line x1="564.8" y1="115.2" x2="565.3" y2="113.5"/>
    <line x1="302.8" y1="62.8" x2="304.3" y2="64.2"/>
    <line x1="472.2" y1="112.8" x2="471.2" y2="114.5"/>
    <line x1="469.2" y1="117.3" x2="468.4" y2="117.4"/>
    <line x1="521.7" y1="200.4" x2="523.0" y2="201.6"/>
    <line x1="302.6" y1="62.3" x2="305.7" y2="62.7"/>
    <line x1="31.7" y1="31.7" x2="30.7" y2="32.4"/>
    <line x1="305.9" y1="64.5" x2="308.9" y2="65.1"/>
    <line x1="518.0" y1="202.5" x2="519.2" y2="200.9"/>
    <line x1="307.2" y1="68.0" x2="304.7" y2="68.5"/>
    <line x1="523.0" y1="201.6" x2="522.0" y2="201.5"/>
    <line x1="288.3" y1="287.5" x2="286.2" y2="284.7"/>
    <line x1="348.5" y1="143.8" x2="347.5" y2="142.8"/>
    <line x1="30.0" y1="32.9" x2="30.7" y2="32.4"/>
    <line x1="183.2" y1="366.6" x2="185.3" y2="368.5"/>
    <line x1="288.3" y1="287.5" x2="290.5" y2="290.8"/>
    <line x1="514.8" y1="337.6" x2="516.8" y2="338.4"/>
    <line x1="352.5" y1="141.1" x2="352.0" y2="140.0"/>
    <line x1="521.5" y1="202.2" x2="519.7" y2="201.7"/>
    <line x1="294.9" y1="295.0" x2="293.5" y2="294.7"/>
    <line x1="183.4" y1="368.4" x2="182.2" y2="370.0"/>
    <line x1="303.8" y1="67.6" x2="303.9" y2="67.9"/>
    <line x1="181.1" y1="364.8" x2="180.2" y2="362.7"/>
    <line x1="567.0" y1="109.0" x2="566.6" y2="109.5"/>
    <line x1="304.3" y1="64.2" x2="305.9" y2="64.1"/>
    <line x1="307.0" y1="66.3" x2="305.9" y2="65.9"/>
    <line x1="307.0" y1="66.3" x2="308.0" y2="67.5"/>
    <line x1="469.2" y1="117.3" x2="469.4" y2="114.5"/>
    <line x1="520.0" y1="202.2" x2="519.1" y2="202.1"/>
    <line x1="521.7" y1="200.4" x2="522.3" y2="199.7"/>
    <line x1="305.9" y1="64.5" x2="304.3" y2="64.2"/>
    <line x1="520.1" y1="335.7" x2="520.1" y2="336.4"/>
    <line x1="302.6" y1="62.3" x2="302.6" y2="63.5"/>
    <line x1="562.9" y1="117.2" x2="562.7" y2="117.3"/>
    <line x1="518.0" y1="202.5" x2="520.0" y2="202.2"/>
    <line x1="184.1" y1="368.2" x2="183.9" y2="368.1"/>
    <line x1="343.0" y1="142.3" x2="343.7" y2="143.8"/>
    <line x1="184.1" y1="361.6" x2="186.2" y2="362.9"/>
    <line x1="183.2" y1="366.6" x2="180.9" y2="366.8"/>
    <line x1="184.1" y1="368.2" x2="183.1" y2="368.4"/>
    <line x1="519.0" y1="336.7" x2="520.1" y2="335.7"/>
    <line x1="569.3" y1="114.4" x2="567.6" y2="113.9"/>
    <line x1="561.9" y1="117.7" x2="562.5" y2="118.9"/>
    <line x1="352.2" y1="141.3" x2="352.7" y2="141.9"/>
    <line x1="292.5" y1="290.1" x2="291.6" y2="290.5"/>
    <line x1="181.1" y1="364.8" x2="181.9" y2="363.9"/>
    <line x1="179.1" y1="366.9" x2="179.7" y2="366.0"/>
    <line x1="344.1" y1="143.0" x2="342.6" y2="143.7"/>
    <line x1="347.3" y1="144.1" x2="344.9" y2="145.5"/>
    <line x1="569.6" y1="115.2" x2="567.4" y2="116.9"/>
    <line x1="305.9" y1="65.9" x2="303.8" y2="66.4"/>
    <line x1="519.2" y1="200.9" x2="520.1" y2="201.3"/>
    <line x1="570.0" y1="115.5" x2="569.3" y2="114.4"/>
    <line x1="522.3" y1="199.7" x2="522.2" y2="199.1"/>
    <line x1="290.7" y1="290.6" x2="290.0" y2="291.9"/>
    <line x1="350.6" y1="144.8" x2="350.8" y2="145.6"/>
    <line x1="31.1" y1="32.1" x2="30.0" y2="32.9"/>
    <line x1="563.7" y1="118.2" x2="562.9" y2="117.2"/>
    <line x1="520.1" y1="336.4" x2="520.1" y2="334.8"/>
    <line x1="307.0" y1="66.3" x2="307.0" y2="67.7"/>
    <line x1="472.2" y1="112.8" x2="470.9" y2="114.4"/>
    <line x1="521.7" y1="200.4" x2="520.7" y2="200.8"/>
    <line x1="180.9" y1="362.0" x2="180.2" y2="362.7"/>
    <line x1="179.2" y1="365.1" x2="177.3" y2="364.4"/>
    <line x1="179.7" y1="366.0" x2="177.3" y2="364.4"/>
    <line x1="348.0" y1="145.7" x2="349.5" y2="146.1"/>
    <line x1="294.9" y1="294.5" x2="294.9" y2="295.0"/>
    <line x1="517.3" y1="336.7" x2="517.4" y2="335.9"/>
    <line x1="31.7" y1="31.7" x2="30.0" y2="32.9"/>
  </g>
  <g class="nodes">
    <circle cx="32.9" cy="30.9" r="3" fill="#90a4ae" opacity="0.9"/>
    <circle cx="32.8" cy="31.0" r="3" fill="#90a4ae" opacity="0.9"/>
    <circle cx="31.9" cy="31.6" r="3" fill="#90a4ae" opacity="0.9"/>
    <circle cx="34.1" cy="30.1" r="3" fill="#90a4ae" opacity="0.9"/>
    <circle cx="31.7" cy="31.7" r="3" fill="#90a4ae" opacity="0.9"/>
    <circle cx="33.5" cy="30.5" r="3" fill="#90a4ae" opacity="0.9"/>
    <circle cx="34.2" cy="30.0" r="3" fill="#90a4ae" opacity="0.9"/>
    <circle cx="179.7" cy="365.0" r="3" fill="#90a4ae" opacity="0.9"/>
    <circle cx="176.5" cy="364.9" r="3" fill="#90a4ae" opacity="0.9"/>
    <circle cx="181.1" cy="364.8" r="3" fill="#90a4ae" opacity="0.9"/>
    <circle cx="181.9" cy="363.9" r="3" fill="#90a4ae" opacity="0.9"/>
    <circle cx="183.7" cy="365.2" r="3" fill="#90a4ae" opacity="0.9"/>
    <circle cx="179.2" cy="365.1" r="3" fill="#90a4ae" opacity="0.9"/>
    <circle cx="178.8" cy="365.2" r="3" fill="#90a4ae" opacity="0.9"/>
    <circle cx="178.8" cy="366.6" r="3" fill="#90a4ae" opacity="0.9"/>
    <circle cx="182.1" cy="366.9" r="3" fill="#90a4ae" opacity="0.9"/>
    <circle cx="183.2" cy="366.6" r="3" fill="#90a4ae" opacity="0.9"/>
    <circle cx="179.1" cy="366.9" r="3" fill="#90a4ae" opacity="0.9"/>
    <circle cx="182.3" cy="364.0" r="3" fill="#90a4ae" opacity="0.9"/>
    <circle cx="183.8" cy="364.4" r="3" fill="#90a4ae" opacity="0.9"/>
    <circle cx="183.2" cy="364.4" r="3" fill="#90a4ae" opacity="0.9"/>
    <circle cx="185.7" cy="366.1" r="3" fill="#90a4ae" opacity="0.9"/>
    <circle cx="180.9" cy="366.8" r="3" fill="#90a4ae" opacity="0.9"/>
    <circle cx="179.7" cy="366.0" r="3" fill="#90a4ae" opacity="0.9"/>
    <circle cx="184.1" cy="368.2" r="3" fill="#90a4ae" opacity="0.9"/>
    <circle cx="187.0" cy="366.0" r="3" fill="#90a4ae" opacity="0.9"/>
    <circle cx="183.9" cy="368.1" r="3" fill="#90a4ae" opacity="0.9"/>
    <circle cx="185.3" cy="368.5" r="3" fill="#90a4ae" opacity="0.9"/>
    <circle cx="183.4" cy="368.4" r="3" fill="#90a4ae" opacity="0.9"/>
    <circle cx="177.3" cy="364.4" r="3" fill="#90a4ae" opacity="0.9"/>
    <circle cx="180.6" cy="366.6" r="3" fill="#90a4ae" opacity="0.9"/>
    <circle cx="180.9" cy="362.0" r="3" fill="#90a4ae" opacity="0.9"/>
    <circle cx="184.1" cy="361.6" r="3" fill="#90a4ae" opacity="0.9"/>
    <circle cx="180.2" cy="362.7" r="3" fill="#90a4ae" opacity="0.9"/>
    <circle cx="179.1" cy="368.5" r="3" fill="#90a4ae" opacity="0.9"/>
    <circle cx="183.1" cy="368.4" r="3" fill="#90a4ae" opacity="0.9"/>
    <circle cx="176.1" cy="366.6" r="3" fill="#90a4ae" opacity="0.9"/>
    <circle cx="182.2" cy="370.0" r="3" fill="#90a4ae" opacity="0.9"/>
    <circle cx="288.3" cy="287.5" r="3" fill="#6c5ce7" opacity="0.9"/>
    <circle cx="186.2" cy="362.9" r="3" fill="#90a4ae" opacity="0.9"/>
    <circle cx="185.8" cy="365.5" r="3" fill="#90a4ae" opacity="0.9"/>
    <circle cx="31.2" cy="32.0" r="3" fill="#90a4ae" opacity="0.9"/>
    <circle cx="31.1" cy="32.1" r="3" fill="#90a4ae" opacity="0.9"/>
    <circle cx="30.0" cy="32.9" r="3" fill="#90a4ae" opacity="0.9"/>
    <circle cx="30.7" cy="32.4" r="3" fill="#90a4ae" opacity="0.9"/>
    <circle cx="32.1" cy="31.4" r="3" fill="#90a4ae" opacity="0.9"/>
    <circle cx="352.2" cy="141.3" r="3" fill="#fd79a8" opacity="0.9"/>
    <circle cx="349.6" cy="140.0" r="3" fill="#90a4ae" opacity="0.9"/>
    <circle cx="350.8" cy="140.2" r="3" fill="#90a4ae" opacity="0.9"/>
    <circle cx="352.5" cy="141.1" r="3" fill="#90a4ae" opacity="0.9"/>
    <circle cx="352.7" cy="141.9" r="3" fill="#fd79a8" opacity="0.9"/>
    <circle cx="352.0" cy="140.0" r="3" fill="#fd79a8" opacity="0.9"/>
    <circle cx="351.7" cy="139.8" r="3" fill="#90a4ae" opacity="0.9"/>
    <circle cx="343.0" cy="142.3" r="3" fill="#90a4ae" opacity="0.9"/>
    <circle cx="344.9" cy="142.7" r="3" fill="#90a4ae" opacity="0.9"/>
    <circle cx="347.4" cy="143.7" r="3" fill="#90a4ae" opacity="0.9"/>
    <circle cx="343.1" cy="141.9" r="3" fill="#90a4ae" opacity="0.9"/>
    <circle cx="344.1" cy="143.0" r="3" fill="#90a4ae" opacity="0.9"/>
    <circle cx="342.1" cy="142.6" r="3" fill="#90a4ae" opacity="0.9"/>
    <circle cx="342.6" cy="143.7" r="3" fill="#90a4ae" opacity="0.9"/>
    <circle cx="341.3" cy="142.5" r="3" fill="#90a4ae" opacity="0.9"/>
    <circle cx="344.5" cy="141.7" r="3" fill="#90a4ae" opacity="0.9"/>
    <circle cx="343.7" cy="143.8" r="3" fill="#90a4ae" opacity="0.9"/>
    <circle cx="350.6" cy="143.1" r="3" fill="#90a4ae" opacity="0.9"/>
    <circle cx="348.5" cy="143.8" r="3" fill="#90a4ae" opacity="0.9"/>
    <circle cx="347.3" cy="144.1" r="3" fill="#90a4ae" opacity="0.9"/>
    <circle cx="347.8" cy="141.8" r="3" fill="#90a4ae" opacity="0.9"/>
    <circle cx="347.5" cy="142.8" r="3" fill="#90a4ae" opacity="0.9"/>
    <circle cx="347.1" cy="141.1" r="3" fill="#90a4ae" opacity="0.9"/>
    <circle cx="349.2" cy="141.2" r="3" fill="#90a4ae" opacity="0.9"/>
    <circle cx="350.6" cy="144.8" r="3" fill="#90a4ae" opacity="0.9"/>
    <circle cx="348.0" cy="145.7" r="3" fill="#90a4ae" opacity="0.9"/>
    <circle cx="344.9" cy="145.5" r="3" fill="#90a4ae" opacity="0.9"/>
    <circle cx="349.6" cy="145.9" r="3" fill="#90a4ae" opacity="0.9"/>
    <circle cx="294.0" cy="294.5" r="3" fill="#90a4ae" opacity="0.9"/>
    <circle cx="294.9" cy="294.5" r="3" fill="#90a4ae" opacity="0.9"/>
    <circle cx="294.9" cy="295.0" r="3" fill="#90a4ae" opacity="0.9"/>
    <circle cx="293.5" cy="294.7" r="3" fill="#90a4ae" opacity="0.9"/>
    <circle cx="296.0" cy="295.5" r="3" fill="#90a4ae" opacity="0.9"/>
    <circle cx="295.7" cy="295.6" r="3" fill="#90a4ae" opacity="0.9"/>
    <circle cx="302.5" cy="63.9" r="3" fill="#90a4ae" opacity="0.9"/>
    <circle cx="300.6" cy="63.3" r="3" fill="#90a4ae" opacity="0.9"/>
    <circle cx="302.8" cy="62.8" r="3" fill="#90a4ae" opacity="0.9"/>
    <circle cx="302.6" cy="62.3" r="3" fill="#90a4ae" opacity="0.9"/>
    <circle cx="300.6" cy="64.1" r="3" fill="#90a4ae" opacity="0.9"/>
    <circle cx="475.6" cy="110.0" r="3" fill="#90a4ae" opacity="0.9"/>
    <circle cx="474.4" cy="110.5" r="3" fill="#90a4ae" opacity="0.9"/>
    <circle cx="474.8" cy="110.8" r="3" fill="#90a4ae" opacity="0.9"/>
    <circle cx="475.6" cy="111.1" r="3" fill="#90a4ae" opacity="0.9"/>
    <circle cx="475.0" cy="110.5" r="3" fill="#90a4ae" opacity="0.9"/>
    <circle cx="307.0" cy="66.3" r="3" fill="#90a4ae" opacity="0.9"/>
    <circle cx="305.9" cy="64.5" r="3" fill="#90a4ae" opacity="0.9"/>
    <circle cx="304.2" cy="67.6" r="3" fill="#90a4ae" opacity="0.9"/>
    <circle cx="304.2" cy="66.6" r="3" fill="#90a4ae" opacity="0.9"/>
    <circle cx="307.2" cy="68.0" r="3" fill="#90a4ae" opacity="0.9"/>
    <circle cx="301.9" cy="66.4" r="3" fill="#90a4ae" opacity="0.9"/>
    <circle cx="300.6" cy="64.2" r="3" fill="#90a4ae" opacity="0.9"/>
    <circle cx="305.9" cy="65.9" r="3" fill="#90a4ae" opacity="0.9"/>
    <circle cx="304.3" cy="64.2" r="3" fill="#90a4ae" opacity="0.9"/>
    <circle cx="305.7" cy="62.7" r="3" fill="#90a4ae" opacity="0.9"/>
    <circle cx="300.2" cy="67.3" r="3" fill="#90a4ae" opacity="0.9"/>
    <circle cx="305.9" cy="64.1" r="3" fill="#90a4ae" opacity="0.9"/>
    <circle cx="304.1" cy="66.3" r="3" fill="#90a4ae" opacity="0.9"/>
    <circle cx="302.6" cy="63.5" r="3" fill="#90a4ae" opacity="0.9"/>
    <circle cx="303.8" cy="66.4" r="3" fill="#90a4ae" opacity="0.9"/>
    <circle cx="302.2" cy="65.3" r="3" fill="#90a4ae" opacity="0.9"/>
    <circle cx="308.0" cy="67.5" r="3" fill="#90a4ae" opacity="0.9"/>
    <circle cx="307.0" cy="65.5" r="3" fill="#90a4ae" opacity="0.9"/>
    <circle cx="304.7" cy="68.5" r="3" fill="#90a4ae" opacity="0.9"/>
    <circle cx="303.8" cy="67.6" r="3" fill="#90a4ae" opacity="0.9"/>
    <circle cx="307.0" cy="67.7" r="3" fill="#90a4ae" opacity="0.9"/>
    <circle cx="303.9" cy="67.9" r="3" fill="#90a4ae" opacity="0.9"/>
    <circle cx="308.9" cy="65.1" r="3" fill="#90a4ae" opacity="0.9"/>
    <circle cx="308.3" cy="64.2" r="3" fill="#90a4ae" opacity="0.9"/>
    <circle cx="350.8" cy="145.6" r="3" fill="#90a4ae" opacity="0.9"/>
    <circle cx="349.5" cy="146.1" r="3" fill="#90a4ae" opacity="0.9"/>
    <circle cx="351.2" cy="145.1" r="3" fill="#90a4ae" opacity="0.9"/>
    <circle cx="352.2" cy="145.3" r="3" fill="#90a4ae" opacity="0.9"/>
    <circle cx="471.6" cy="113.6" r="3" fill="#90a4ae" opacity="0.9"/>
    <circle cx="472.2" cy="112.8" r="3" fill="#90a4ae" opacity="0.9"/>
    <circle cx="515.0" cy="337.1" r="3" fill="#90a4ae" opacity="0.9"/>
    <circle cx="518.1" cy="336.9" r="3" fill="#90a4ae" opacity="0.9"/>
    <circle cx="518.1" cy="336.3" r="3" fill="#90a4ae" opacity="0.9"/>
    <circle cx="517.3" cy="336.7" r="3" fill="#90a4ae" opacity="0.9"/>
    <circle cx="519.0" cy="336.7" r="3" fill="#90a4ae" opacity="0.9"/>
    <circle cx="517.4" cy="335.9" r="3" fill="#6c5ce7" opacity="0.9"/>
    <circle cx="516.5" cy="336.6" r="3" fill="#6c5ce7" opacity="0.9"/>
    <circle cx="514.8" cy="337.6" r="3" fill="#90a4ae" opacity="0.9"/>
    <circle cx="518.3" cy="338.5" r="3" fill="#90a4ae" opacity="0.9"/>
    <circle cx="516.9" cy="338.6" r="3" fill="#90a4ae" opacity="0.9"/>
    <circle cx="518.9" cy="338.2" r="3" fill="#90a4ae" opacity="0.9"/>
    <circle cx="520.1" cy="335.7" r="3" fill="#90a4ae" opacity="0.9"/>
    <circle cx="516.8" cy="338.4" r="3" fill="#90a4ae" opacity="0.9"/>
    <circle cx="515.6" cy="338.0" r="3" fill="#90a4ae" opacity="0.9"/>
    <circle cx="520.1" cy="336.4" r="3" fill="#90a4ae" opacity="0.9"/>
    <circle cx="520.1" cy="334.8" r="3" fill="#90a4ae" opacity="0.9"/>
    <circle cx="515.9" cy="335.8" r="3" fill="#90a4ae" opacity="0.9"/>
    <circle cx="520.1" cy="339.2" r="3" fill="#90a4ae" opacity="0.9"/>
    <circle cx="514.4" cy="335.7" r="3" fill="#90a4ae" opacity="0.9"/>
    <circle cx="277.9" cy="271.0" r="3" fill="#6c5ce7" opacity="0.9"/>
    <circle cx="278.0" cy="270.8" r="3" fill="#90a4ae" opacity="0.9"/>
    <circle cx="278.0" cy="271.1" r="3" fill="#90a4ae" opacity="0.9"/>
    <circle cx="469.2" cy="117.3" r="3" fill="#90a4ae" opacity="0.9"/>
    <circle cx="470.3" cy="114.7" r="3" fill="#90a4ae" opacity="0.9"/>
    <circle cx="469.4" cy="114.5" r="3" fill="#90a4ae" opacity="0.9"/>
    <circle cx="470.3" cy="114.9" r="3" fill="#90a4ae" opacity="0.9"/>
    <circle cx="470.9" cy="114.4" r="3" fill="#90a4ae" opacity="0.9"/>
    <circle cx="471.2" cy="114.5" r="3" fill="#90a4ae" opacity="0.9"/>
    <circle cx="470.0" cy="113.7" r="3" fill="#90a4ae" opacity="0.9"/>
    <circle cx="468.4" cy="117.4" r="3" fill="#90a4ae" opacity="0.9"/>
    <circle cx="288.5" cy="286.6" r="3" fill="#90a4ae" opacity="0.9"/>
    <circle cx="278.2" cy="271.3" r="3" fill="#90a4ae" opacity="0.9"/>
    <circle cx="277.9" cy="271.2" r="3" fill="#6c5ce7" opacity="0.9"/>
    <circle cx="276.7" cy="271.4" r="3" fill="#90a4ae" opacity="0.9"/>
    <circle cx="279.0" cy="271.8" r="3" fill="#90a4ae" opacity="0.9"/>
    <circle cx="280.7" cy="272.9" r="3" fill="#9b59b6" opacity="0.9"/>
    <circle cx="569.6" cy="115.2" r="3" fill="#90a4ae" opacity="0.9"/>
    <circle cx="570.0" cy="115.5" r="3" fill="#90a4ae" opacity="0.9"/>
    <circle cx="567.5" cy="114.0" r="3" fill="#90a4ae" opacity="0.9"/>
    <circle cx="565.2" cy="116.7" r="3" fill="#90a4ae" opacity="0.9"/>
    <circle cx="564.8" cy="115.2" r="3" fill="#90a4ae" opacity="0.9"/>
    <circle cx="563.6" cy="114.5" r="3" fill="#90a4ae" opacity="0.9"/>
    <circle cx="565.6" cy="116.8" r="3" fill="#90a4ae" opacity="0.9"/>
    <circle cx="568.1" cy="112.9" r="3" fill="#90a4ae" opacity="0.9"/>
    <circle cx="569.3" cy="114.4" r="3" fill="#90a4ae" opacity="0.9"/>
    <circle cx="569.0" cy="113.5" r="3" fill="#90a4ae" opacity="0.9"/>
    <circle cx="567.8" cy="113.8" r="3" fill="#90a4ae" opacity="0.9"/>
    <circle cx="567.6" cy="113.9" r="3" fill="#90a4ae" opacity="0.9"/>
    <circle cx="567.0" cy="109.0" r="3" fill="#90a4ae" opacity="0.9"/>
    <circle cx="566.6" cy="109.5" r="3" fill="#90a4ae" opacity="0.9"/>
    <circle cx="567.3" cy="108.5" r="3" fill="#90a4ae" opacity="0.9"/>
    <circle cx="563.7" cy="118.2" r="3" fill="#90a4ae" opacity="0.9"/>
    <circle cx="561.1" cy="116.1" r="3" fill="#90a4ae" opacity="0.9"/>
    <circle cx="562.0" cy="116.6" r="3" fill="#90a4ae" opacity="0.9"/>
    <circle cx="564.2" cy="118.4" r="3" fill="#90a4ae" opacity="0.9"/>
    <circle cx="562.9" cy="117.2" r="3" fill="#90a4ae" opacity="0.9"/>
    <circle cx="561.9" cy="117.7" r="3" fill="#90a4ae" opacity="0.9"/>
    <circle cx="562.7" cy="117.3" r="3" fill="#90a4ae" opacity="0.9"/>
    <circle cx="562.5" cy="118.9" r="3" fill="#90a4ae" opacity="0.9"/>
    <circle cx="565.3" cy="113.5" r="3" fill="#90a4ae" opacity="0.9"/>
    <circle cx="567.0" cy="117.0" r="3" fill="#90a4ae" opacity="0.9"/>
    <circle cx="567.4" cy="116.9" r="3" fill="#90a4ae" opacity="0.9"/>
    <circle cx="521.7" cy="200.4" r="3" fill="#90a4ae" opacity="0.9"/>
    <circle cx="518.0" cy="202.5" r="3" fill="#90a4ae" opacity="0.9"/>
    <circle cx="520.7" cy="200.8" r="3" fill="#90a4ae" opacity="0.9"/>
    <circle cx="520.0" cy="201.6" r="3" fill="#90a4ae" opacity="0.9"/>
    <circle cx="519.2" cy="200.9" r="3" fill="#90a4ae" opacity="0.9"/>
    <circle cx="521.5" cy="202.2" r="3" fill="#90a4ae" opacity="0.9"/>
    <circle cx="520.1" cy="201.1" r="3" fill="#90a4ae" opacity="0.9"/>
    <circle cx="522.3" cy="199.7" r="3" fill="#90a4ae" opacity="0.9"/>
    <circle cx="520.0" cy="202.2" r="3" fill="#90a4ae" opacity="0.9"/>
    <circle cx="520.1" cy="201.3" r="3" fill="#90a4ae" opacity="0.9"/>
    <circle cx="519.7" cy="201.7" r="3" fill="#90a4ae" opacity="0.9"/>
    <circle cx="519.1" cy="202.1" r="3" fill="#90a4ae" opacity="0.9"/>
    <circle cx="523.0" cy="201.6" r="3" fill="#90a4ae" opacity="0.9"/>
    <circle cx="522.0" cy="201.5" r="3" fill="#90a4ae" opacity="0.9"/>
    <circle cx="522.2" cy="199.1" r="3" fill="#90a4ae" opacity="0.9"/>
    <circle cx="518.8" cy="199.6" r="3" fill="#90a4ae" opacity="0.9"/>
    <circle cx="293.9" cy="293.1" r="3" fill="#90a4ae" opacity="0.9"/>
    <circle cx="294.7" cy="292.7" r="3" fill="#90a4ae" opacity="0.9"/>
    <circle cx="292.7" cy="291.9" r="3" fill="#90a4ae" opacity="0.9"/>
    <circle cx="294.0" cy="293.2" r="3" fill="#90a4ae" opacity="0.9"/>
    <circle cx="291.9" cy="292.9" r="3" fill="#90a4ae" opacity="0.9"/>
    <circle cx="286.5" cy="284.7" r="3" fill="#90a4ae" opacity="0.9"/>
    <circle cx="286.2" cy="284.7" r="3" fill="#90a4ae" opacity="0.9"/>
    <circle cx="286.3" cy="283.9" r="3" fill="#90a4ae" opacity="0.9"/>
    <circle cx="285.8" cy="284.3" r="3" fill="#90a4ae" opacity="0.9"/>
    <circle cx="285.0" cy="284.2" r="3" fill="#90a4ae" opacity="0.9"/>
    <circle cx="292.5" cy="290.1" r="3" fill="#90a4ae" opacity="0.9"/>
    <circle cx="290.7" cy="290.6" r="3" fill="#90a4ae" opacity="0.9"/>
    <circle cx="291.6" cy="290.5" r="3" fill="#90a4ae" opacity="0.9"/>
    <circle cx="290.0" cy="291.9" r="3" fill="#90a4ae" opacity="0.9"/>
    <circle cx="291.5" cy="290.8" r="3" fill="#90a4ae" opacity="0.9"/>
    <circle cx="290.5" cy="290.8" r="3" fill="#90a4ae" opacity="0.9"/>
    <circle cx="291.6" cy="290.5" r="3" fill="#90a4ae" opacity="0.9"/>
  </g>
  <text x="15" y="25" fill="#e94560" font-family="system-ui" font-size="14" font-weight="600">2D Proof Map</text>
  <text x="15" y="42" fill="#b8c7d9" font-family="system-ui" font-size="10">215 declarations · 663 kNN edges</text>
</svg>